<svg width="24" height="24" viewBox="0 0 24 24" fill="none" xmlns="http://www.w3.org/2000/svg">
<path d="M6.38214 20.8551C5.40823 19.8812 4.63568 18.725 4.1086 17.4525C3.58153 16.1801 3.31024 14.8162 3.31024 13.4389C3.31024 12.0616 3.58152 10.6977 4.1086 9.42527C4.63568 8.15279 5.40823 6.99659 6.38214 6.02267C7.35606 5.04876 8.51226 4.27621 9.78474 3.74913C11.0572 3.22206 12.4211 2.95077 13.7984 2.95077C15.1757 2.95077 16.5395 3.22206 17.812 3.74913C19.0845 4.27621 20.2407 5.04876 21.2146 6.02267" stroke="#009AD9" stroke-width="1.25"/>
<path d="M6.03906 5.68863L13.7772 13.4268" stroke="#0E416C" stroke-width="0.75"/>
<path d="M21.6328 5.58301L5.95312 21.2783" stroke="#0E416C" stroke-width="0.75"/>
<circle cx="6.03906" cy="19.9688" r="2.5" fill="#0E416C" stroke="white"/>
<path d="M22.4688 5.58301C22.4688 6.96372 21.3495 8.08301 19.9688 8.08301C18.588 8.08301 17.4688 6.96372 17.4688 5.58301C17.4688 4.2023 18.588 3.08301 19.9688 3.08301C21.3495 3.08301 22.4688 4.2023 22.4688 5.58301Z" fill="#0E416C" stroke="white"/>
<circle cx="5.53906" cy="5.08301" r="3" fill="#FF0404" stroke="white"/>
</svg>
