<svg width="24" height="24" viewBox="0 0 24 24" fill="none" xmlns="http://www.w3.org/2000/svg">
<g clip-path="url(#clip0_24829_15878)">
<path d="M4.61978 14.8065C5.07757 16.5149 6.0317 18.0493 7.36152 19.2155C8.69134 20.3818 10.3371 21.1275 12.0908 21.3583C13.8444 21.5892 15.6271 21.2949 17.2134 20.5126C18.7998 19.7303 20.1185 18.4951 21.0029 16.9633C21.8873 15.4315 22.2976 13.6719 22.1819 11.9069C22.0662 10.142 21.4298 8.45094 20.353 7.04769C19.2762 5.64444 17.8076 4.592 16.1327 4.02345C14.4578 3.4549 12.6519 3.39578 10.9434 3.85357" stroke="#009AD9" stroke-width="1.16292"/>
<line x1="9.61351" y1="4.28447" x2="19.6968" y2="18.6409" stroke="#0E416C" stroke-width="0.75"/>
<line x1="4.67693" y1="14.7593" x2="19.7023" y2="18.6895" stroke="#0E416C" stroke-width="0.75"/>
<circle cx="10.1094" cy="4.08997" r="3" fill="#FF0404" stroke="white"/>
<circle cx="4.69922" cy="14.7889" r="2.5" fill="#0E416C" stroke="white"/>
<circle cx="19.625" cy="18.4584" r="2.5" fill="#0E416C" stroke="white"/>
</g>
<defs>
<clipPath id="clip0_24829_15878">
<rect width="24" height="24" fill="white"/>
</clipPath>
</defs>
</svg>
