<svg width="24" height="24" viewBox="0 0 24 24" fill="none" xmlns="http://www.w3.org/2000/svg">
<path d="M18 20.8633L15.8555 22.3047L10.7734 2.00391L13.1758 2L18 20.8633Z" fill="#009AD9"/>
<path d="M8.88281 17.8633L6.22656 18.957L7.17969 14.8633L9.25781 15.3945L8.88281 17.8633Z" fill="#009AD9"/>
<path d="M9.72894 12.311L11.4349 12.6957L11.6094 13.4336L7.6875 12.582L9.72894 12.311Z" fill="#009AD9"/>
<path d="M9.74566 12.311L7.74219 12.5742L9.53125 5.02734L10.2422 7.83203L9.74566 12.311Z" fill="white"/>
<path d="M9.74566 12.311L7.74219 12.5742L9.53125 5.02734L10.2422 7.83203L9.74566 12.311Z" fill="#009AD9"/>
<path fill-rule="evenodd" clip-rule="evenodd" d="M6.1515 18.7958L4.64844 18.2677L8.30453 2.12671H10.6742L15.6844 22.1133L13.4772 21.355L12.1637 16.0198L7.08583 14.7199L6.1515 18.7958ZM11.7813 13.5936L7.59375 12.6796L9.53012 4.48047L11.7813 13.5936Z" fill="#DCEDF9"/>
<path d="M4.64844 18.2677L4.52653 18.2401L4.50192 18.3487L4.607 18.3856L4.64844 18.2677ZM6.1515 18.7958L6.11006 18.9137L6.24207 18.9601L6.27334 18.8237L6.1515 18.7958ZM8.30453 2.12671V2.00171H8.20467L8.18262 2.09909L8.30453 2.12671ZM10.6742 2.12671L10.7955 2.09631L10.7717 2.00171H10.6742V2.12671ZM15.6844 22.1133L15.6438 22.2316L15.8617 22.3064L15.8057 22.0829L15.6844 22.1133ZM13.4772 21.355L13.3558 21.3849L13.3721 21.4511L13.4366 21.4732L13.4772 21.355ZM12.1637 16.0198L12.2851 15.99L12.2672 15.9173L12.1947 15.8988L12.1637 16.0198ZM7.08583 14.7199L7.11683 14.5988L6.99264 14.567L6.96399 14.692L7.08583 14.7199ZM7.59375 12.6796L7.4721 12.6509L7.44287 12.7746L7.56709 12.8017L7.59375 12.6796ZM11.7813 13.5936L11.7547 13.7157L11.9508 13.7586L11.9027 13.5636L11.7813 13.5936ZM9.53012 4.48047L9.65148 4.45049L9.40847 4.45174L9.53012 4.48047ZM4.607 18.3856L6.11006 18.9137L6.19293 18.6778L4.68987 18.1497L4.607 18.3856ZM8.18262 2.09909L4.52653 18.2401L4.77035 18.2953L8.42644 2.15432L8.18262 2.09909ZM10.6742 2.00171H8.30453V2.25171H10.6742V2.00171ZM15.8057 22.0829L10.7955 2.09631L10.553 2.1571L15.5632 22.1437L15.8057 22.0829ZM13.4366 21.4732L15.6438 22.2316L15.725 21.9951L13.5178 21.2368L13.4366 21.4732ZM12.0424 16.0497L13.3558 21.3849L13.5986 21.3251L12.2851 15.99L12.0424 16.0497ZM7.05483 14.841L12.1327 16.1409L12.1947 15.8988L7.11683 14.5988L7.05483 14.841ZM6.27334 18.8237L7.20767 14.7478L6.96399 14.692L6.02966 18.7678L6.27334 18.8237ZM7.56709 12.8017L11.7547 13.7157L11.808 13.4715L7.62041 12.5575L7.56709 12.8017ZM9.40847 4.45174L7.4721 12.6509L7.7154 12.7083L9.65178 4.5092L9.40847 4.45174ZM11.9027 13.5636L9.65148 4.45049L9.40877 4.51045L11.66 13.6236L11.9027 13.5636Z" fill="#0E416C"/>
</svg>
