<svg width="24" height="24" viewBox="0 0 24 24" fill="none" xmlns="http://www.w3.org/2000/svg">
<path fill-rule="evenodd" clip-rule="evenodd" d="M14.8068 8.73805L22.0003 6.651L17.2338 12.3399L16.3606 11.0202L11.7068 13.9205L11.1309 13.0135L15.714 10.1134L14.8068 8.73805Z" fill="#349C44"/>
<path fill-rule="evenodd" clip-rule="evenodd" d="M8.01531 8.65828L9.81167 1.36062L12.336 8.34916L10.7609 8.44841L10.9359 13.9446L9.86559 13.9919L9.65535 8.55719L8.01531 8.65828Z" fill="#009AD9"/>
<path fill-rule="evenodd" clip-rule="evenodd" d="M17.2756 16.0484L22 21.8805L14.9213 19.6986L15.7902 18.376L11.3125 15.2087L11.919 14.322L16.369 17.4242L17.2756 16.0484Z" fill="#FF0404"/>
<rect width="1.114" height="1.08543" transform="matrix(0.557692 -0.830048 0.828023 0.560695 6.82227 12.2378)" fill="#FF0404"/>
<rect width="1.114" height="1.08543" transform="matrix(0.557691 -0.830048 0.828023 0.560695 4.77344 10.9919)" fill="#FF0404"/>
<rect width="1.114" height="1.08543" transform="matrix(0.557692 -0.830048 0.828023 0.560694 2.6543 9.67688)" fill="#FF0404"/>
<rect width="1.114" height="1.08543" transform="matrix(-0.557691 -0.830048 -0.828022 0.560695 4.33203 18.6052)" fill="#349C44"/>
<rect width="1.114" height="1.08543" transform="matrix(-0.557692 -0.830048 -0.828023 0.560694 6.37891 17.2903)" fill="#349C44"/>
<rect width="1.114" height="1.08543" transform="matrix(-0.557692 -0.830048 -0.828023 0.560694 8.49805 16.0444)" fill="#009AD9"/>
<rect x="10.0352" y="17.5568" width="1.11048" height="1.08887" fill="#009AD9"/>
<rect x="10.0352" y="19.558" width="1.11048" height="1.08886" fill="#009AD9"/>
<rect x="10.0352" y="21.9111" width="1.11048" height="1.08887" fill="#009AD9"/>
<path d="M14.1523 14.6614C14.1523 16.5944 12.5853 18.1614 10.6523 18.1614C8.71935 18.1614 7.15234 16.5944 7.15234 14.6614C7.15234 12.7284 8.71935 11.1614 10.6523 11.1614C12.5853 11.1614 14.1523 12.7284 14.1523 14.6614Z" fill="#0E416C" stroke="white"/>
</svg>
