<svg width="24" height="24" viewBox="0 0 24 24" fill="none" xmlns="http://www.w3.org/2000/svg">
<path d="M9.72656 2.48438L18.0626 10.7879" stroke="#0E416C" stroke-width="1.25" stroke-linecap="round"/>
<path d="M2.30273 9.87891L10.6388 18.1825" stroke="#0E416C" stroke-width="1.25" stroke-linecap="round"/>
<path d="M14.5533 19.0766C14.5533 20.7718 13.1733 22.1488 11.4674 22.1488C9.76159 22.1488 8.38151 20.7718 8.38151 19.0766C8.38151 17.3813 9.76159 16.0043 11.4674 16.0043C13.1733 16.0043 14.5533 17.3813 14.5533 19.0766Z" fill="#FF0404" stroke="white" stroke-width="0.833333"/>
<path d="M22.0123 11.6471C22.0123 13.3424 20.6323 14.7194 18.9264 14.7194C17.2206 14.7194 15.8405 13.3424 15.8405 11.6471C15.8405 9.9519 17.2206 8.57487 18.9264 8.57487C20.6323 8.57487 22.0123 9.9519 22.0123 11.6471Z" fill="#FF0404" stroke="white" stroke-width="0.833333"/>
<path fill-rule="evenodd" clip-rule="evenodd" d="M5.65702 6.32068L5.66787 4.12447L4.43701 5.35533C4.29906 5.49328 4.21603 5.59416 4.18791 5.658C4.12805 5.77499 4.15347 5.88883 4.26416 5.99953C4.29987 6.03524 4.35519 6.08348 4.43011 6.14425C4.50503 6.20502 4.56034 6.25326 4.59605 6.28897C4.78173 6.47466 4.81268 6.62939 4.68888 6.75319C4.56863 6.87344 4.43173 6.8568 4.27818 6.70325C4.23533 6.6604 4.17281 6.59258 4.09063 6.49979C4.00845 6.407 3.94594 6.33918 3.90309 6.29633C3.8031 6.19634 3.72635 6.12313 3.67282 6.07667C3.61929 6.03022 3.56217 5.97664 3.50147 5.91593C3.40506 5.81952 3.36293 5.74202 3.37509 5.68344C3.38725 5.62486 3.46407 5.52483 3.60555 5.38336L4.91069 4.07822C4.98143 4.00748 5.09811 3.88365 5.26074 3.70673C5.34206 3.61827 5.43931 3.51745 5.55249 3.40427C5.76117 3.19559 5.92979 3.15552 6.05834 3.28408C6.14047 3.36621 6.18017 3.49433 6.17745 3.66846L6.1493 5.59272C6.17053 5.57149 6.19704 5.54141 6.22884 5.50247L6.29781 5.4335C6.59845 5.13286 6.94245 4.98346 7.32983 4.98531C7.71721 4.98716 8.06265 5.13984 8.36618 5.44336C8.74469 5.82187 8.91651 6.2678 8.88164 6.78117C8.84677 7.29453 8.61358 7.76696 8.18207 8.19847C7.78593 8.59462 7.35792 8.82801 6.89804 8.89868C6.43815 8.96934 6.06181 8.85826 5.769 8.56545C5.60117 8.39762 5.50698 8.20794 5.48642 7.99638C5.46587 7.78483 5.52633 7.60832 5.66781 7.46684C5.75977 7.37488 5.8626 7.32739 5.97631 7.32438C6.09002 7.32137 6.19151 7.3645 6.28078 7.45377C6.45932 7.63231 6.44426 7.82592 6.23557 8.0346L6.17721 8.09296L6.21471 8.13046C6.38968 8.30543 6.63782 8.36081 6.95914 8.29659C7.28045 8.23238 7.57198 8.06941 7.83371 7.80767C8.12728 7.5141 8.28299 7.18878 8.30083 6.83171C8.31867 6.47463 8.19548 6.16398 7.93123 5.89973C7.46702 5.43552 6.97319 5.46515 6.44971 5.98862C6.31177 6.12657 6.18459 6.28588 6.06818 6.46657C6.04349 6.50555 6.01699 6.53918 5.9887 6.56748C5.90381 6.65236 5.81495 6.64839 5.7221 6.55554C5.67925 6.51269 5.65756 6.43441 5.65702 6.32068Z" fill="#0E416C"/>
<path d="M14.4531 3.41455L3.28655 14.5376" stroke="#0E416C" stroke-width="1.25" stroke-linecap="round"/>
</svg>
