<svg width="24" height="24" viewBox="0 0 24 24" fill="none" xmlns="http://www.w3.org/2000/svg">
<g clip-path="url(#clip0_24833_14936)">
<path d="M14.6836 3.65759C25.8711 11.0951 15.5898 17.2513 15.5898 17.2513" stroke="#009AD9"/>
<path d="M18.8865 18.779C11.0111 27.2986 4.23775 19.1612 1.80165 16.9093L5.89586 12.4628C8.80919 15.1558 11.5212 18.4667 14.7592 14.9638C16.3465 13.2467 20.4899 17.0443 18.8865 18.779Z" fill="#DCEDF9" stroke="#009AD9" stroke-width="0.75"/>
<path d="M4.84254 15.5299C4.21046 16.2137 3.49892 16.6954 2.86452 16.9249C2.22327 17.1569 1.69807 17.1207 1.39126 16.8371C1.08445 16.5534 1.00714 16.0327 1.18812 15.3752C1.36716 14.7248 1.79146 13.9776 2.42354 13.2939C3.05562 12.6101 3.76717 12.1285 4.40157 11.8989C5.04281 11.6669 5.56801 11.7031 5.87482 11.9867C6.18164 12.2704 6.25894 12.7911 6.07797 13.4486C5.89893 14.099 5.47462 14.8462 4.84254 15.5299Z" fill="#0E416C" stroke="#0E416C" stroke-width="0.256451"/>
<ellipse cx="3.63163" cy="14.4119" rx="1.01335" ry="1.9583" transform="rotate(42.7498 3.63163 14.4119)" fill="white"/>
<circle cx="15.8542" cy="4.50529" r="3" transform="rotate(40.1706 15.8542 4.50529)" fill="#FF0404" stroke="white"/>
</g>
<defs>
<clipPath id="clip0_24833_14936">
<rect width="24" height="24" fill="white"/>
</clipPath>
</defs>
</svg>
