<svg width="24" height="24" viewBox="0 0 24 24" fill="none" xmlns="http://www.w3.org/2000/svg">
<path d="M16.5 2.5H17V2H16.5V2.5ZM2.5 2.5V2H2V2.5H2.5ZM2.5 16.5H2V17H2.5V16.5ZM16.5 16.5V17H17V16.5H16.5ZM16.5 2H16V3H16.5V2ZM15 2H14V3H15V2ZM13 2H12V3H13V2ZM11 2H10V3H11V2ZM9 2H8V3H9V2ZM7 2H6V3H7V2ZM5 2H4V3H5V2ZM3 2H2.5V3H3V2ZM2 2.5V3H3V2.5H2ZM2 4V5H3V4H2ZM2 6V7H3V6H2ZM2 8V9H3V8H2ZM2 10V11H3V10H2ZM2 12V13H3V12H2ZM2 14V15H3V14H2ZM2 16V16.5H3V16H2ZM2.5 17H3V16H2.5V17ZM4 17H5V16H4V17ZM6 17H7V16H6V17ZM8 17H9V16H8V17ZM10 17H11V16H10V17ZM12 17H13V16H12V17ZM14 17H15V16H14V17ZM16 17H16.5V16H16V17ZM17 16.5V16H16V16.5H17ZM17 15V14H16V15H17ZM17 13V12H16V13H17ZM17 11V10H16V11H17ZM17 9V8H16V9H17ZM17 7V6H16V7H17ZM17 5V4H16V5H17ZM17 3V2.5H16V3H17Z" fill="#0E416C"/>
<path d="M21.5059 7.49561H22.0059V6.99561H21.5059V7.49561ZM7.50586 7.49561V6.99561H7.00586V7.49561H7.50586ZM7.50586 21.4956H7.00586V21.9956H7.50586V21.4956ZM21.5059 21.4956V21.9956H22.0059V21.4956H21.5059ZM21.5059 6.99561H21.0059V7.99561H21.5059V6.99561ZM20.0059 6.99561H19.0059V7.99561H20.0059V6.99561ZM18.0059 6.99561H17.0059V7.99561H18.0059V6.99561ZM16.0059 6.99561H15.0059V7.99561H16.0059V6.99561ZM14.0059 6.99561H13.0059V7.99561H14.0059V6.99561ZM12.0059 6.99561H11.0059V7.99561H12.0059V6.99561ZM10.0059 6.99561H9.00586V7.99561H10.0059V6.99561ZM8.00586 6.99561H7.50586V7.99561H8.00586V6.99561ZM7.00586 7.49561V7.99561H8.00586V7.49561H7.00586ZM7.00586 8.99561V9.99561H8.00586V8.99561H7.00586ZM7.00586 10.9956V11.9956H8.00586V10.9956H7.00586ZM7.00586 12.9956V13.9956H8.00586V12.9956H7.00586ZM7.00586 14.9956V15.9956H8.00586V14.9956H7.00586ZM7.00586 16.9956V17.9956H8.00586V16.9956H7.00586ZM7.00586 18.9956V19.9956H8.00586V18.9956H7.00586ZM7.00586 20.9956V21.4956H8.00586V20.9956H7.00586ZM7.50586 21.9956H8.00586V20.9956H7.50586V21.9956ZM9.00586 21.9956H10.0059V20.9956H9.00586V21.9956ZM11.0059 21.9956H12.0059V20.9956H11.0059V21.9956ZM13.0059 21.9956H14.0059V20.9956H13.0059V21.9956ZM15.0059 21.9956H16.0059V20.9956H15.0059V21.9956ZM17.0059 21.9956H18.0059V20.9956H17.0059V21.9956ZM19.0059 21.9956H20.0059V20.9956H19.0059V21.9956ZM21.0059 21.9956H21.5059V20.9956H21.0059V21.9956ZM22.0059 21.4956V20.9956H21.0059V21.4956H22.0059ZM22.0059 19.9956V18.9956H21.0059V19.9956H22.0059ZM22.0059 17.9956V16.9956H21.0059V17.9956H22.0059ZM22.0059 15.9956V14.9956H21.0059V15.9956H22.0059ZM22.0059 13.9956V12.9956H21.0059V13.9956H22.0059ZM22.0059 11.9956V10.9956H21.0059V11.9956H22.0059ZM22.0059 9.99561V8.99561H21.0059V9.99561H22.0059ZM22.0059 7.99561V7.49561H21.0059V7.99561H22.0059Z" fill="#0E416C"/>
<path d="M16.5 7.5V16.5H7.5V7.5H16.5Z" fill="#DCEDF9" stroke="#009AD9"/>
</svg>
