<svg width="24" height="24" viewBox="0 0 24 24" fill="none" xmlns="http://www.w3.org/2000/svg">
<path d="M2.34375 22.5823C9.51986 20.6568 15.3362 19.7364 18.2637 13.3429C18.5215 12.7799 19.2073 5.1055 12.0765 5.00504C4.94562 4.90458 0.570652 9.72938 4.90493 14.1576C6.4853 15.4563 5.28522 22.1302 2.34375 22.5823Z" stroke="#009AD9" stroke-linecap="round" stroke-dasharray="2 2"/>
<path fill-rule="evenodd" clip-rule="evenodd" d="M7.91455 8.75953C7.83896 8.6286 7.67153 8.58374 7.5406 8.65933L6.40576 9.31453C6.22427 9.41932 5.99715 9.28963 5.99515 9.08007L5.92462 1.68275C5.92259 1.46984 6.15372 1.33622 6.33722 1.44423L12.7164 5.19924C12.8971 5.30562 12.896 5.56737 12.7144 5.67222L11.5708 6.33247C11.4399 6.40806 11.3951 6.57548 11.4706 6.70641L13.2455 9.78055C13.3211 9.91149 13.2762 10.0789 13.1453 10.1545L10.0634 11.9339C9.93242 12.0095 9.765 11.9646 9.6894 11.8337L7.91455 8.75953Z" fill="#0E416C"/>
</svg>
