<svg width="32px" height="32px" viewBox="0 0 32 32" version="1.1" xmlns="http://www.w3.org/2000/svg" xmlns:xlink="http://www.w3.org/1999/xlink" fill="#4A4A4A">
  <g id="mi_text" stroke="none" fill-rule="nonzero" fill="inherit">
    <path d="M8.25 6.25h16.5V8.5c0 .414.336.75.75.75s.75-.336.75-.75v-3c0-.414-.336-.75-.75-.75h-18c-.414 0-.75.336-.75.75v3c0 .414.336.75.75.75s.75-.336.75-.75V6.25z"/>
    <path d="M15.75 5.5v21c0 .414.336.75.75.75s.75-.336.75-.75v-21c0-.414-.336-.75-.75-.75s-.75.336-.75.75z"/>
    <path d="M13 27.25h7c.414 0 .75-.336.75-.75s-.336-.75-.75-.75h-7c-.414 0-.75.336-.75.75s.336.75.75.75z"/>
  </g>
</svg>