<svg width="32px" height="32px" viewBox="0 0 32 32" version="1.1" xmlns="http://www.w3.org/2000/svg" xmlns:xlink="http://www.w3.org/1999/xlink" fill="#4A4A4A">
  <g id="mi_units" stroke="none" fill-rule="nonzero" fill="inherit">
    <path d="M22 5.56L5.56 22 10 26.44 26.44 10 22 5.56zm6.03 4.97l-17.5 17.5c-.293.294-.767.294-1.06 0l-5.5-5.5c-.293-.292-.293-.767 0-1.06l17.5-17.5c.293-.293.767-.293 1.06 0l5.5 5.5c.293.293.293.768 0 1.06z"/>
    <path d="M7.66 18.84l2.5 2.5c.196.195.513.195.708 0 .195-.195.195-.512 0-.707l-2.5-2.5c-.195-.196-.512-.196-.707 0-.192.195-.192.512 0 .707zm2.004-1.997l2.015 1.984c.194.193.51.19.704-.006.194-.194.19-.51-.006-.704l-2.016-1.984c-.196-.193-.513-.19-.707.006-.193.197-.19.514.006.708zm2.24-2.246l2.5 2.5c.195.195.512.195.707 0 .198-.196.198-.512 0-.707l-2.5-2.5c-.192-.196-.51-.196-.704 0-.196.195-.196.51 0 .707zm2.006-2.007l1.75 1.75c.196.195.513.195.708 0 .195-.195.195-.512 0-.707l-1.75-1.75c-.195-.196-.512-.196-.707 0-.192.195-.192.512 0 .707zm2.236-2.236l2.5 2.5c.196.195.512.195.708 0 .195-.195.195-.512 0-.707l-2.5-2.5c-.196-.195-.512-.195-.708 0-.195.195-.195.512 0 .707zm2.004-1.997l2.014 1.986c.197.193.513.19.707-.006.197-.196.195-.513-.002-.707L18.85 7.644c-.196-.193-.512-.19-.706.006-.194.196-.192.513.005.707z"/>
  </g>
</svg>