<svg width="24" height="24" viewBox="0 0 24 24" fill="none" xmlns="http://www.w3.org/2000/svg">
<path fill-rule="evenodd" clip-rule="evenodd" d="M9.43186 6.14312C9.2134 6.14269 9.076 5.90643 9.18402 5.71696L11.88 0.988414C11.9889 0.797481 12.2645 0.798011 12.3741 0.989364L15.0881 5.72832C15.1969 5.91821 15.0604 6.15395 14.8419 6.15353L13.774 6.15147L13.7799 9.2482C13.7802 9.40534 13.6531 9.53248 13.4959 9.53218L10.7909 9.52705C10.6338 9.52675 10.5062 9.39912 10.5059 9.24199L10.4999 6.14522L9.43186 6.14312Z" fill="#FF0404"/>
<path d="M9.43186 6.14312L9.43219 5.97544L9.43186 6.14312ZM9.18402 5.71696L9.03835 5.63391L9.18402 5.71696ZM11.88 0.988414L12.0257 1.07147L11.88 0.988414ZM12.3741 0.989364L12.5196 0.906028L12.5196 0.906028L12.3741 0.989364ZM15.0881 5.72832L14.9426 5.81166L15.0881 5.72832ZM14.8419 6.15353L14.8416 6.32121L14.8419 6.15353ZM13.774 6.15147L13.7743 5.98378L13.606 5.98346L13.6063 6.15179L13.774 6.15147ZM13.7799 9.2482L13.6122 9.24853L13.7799 9.2482ZM13.4959 9.53218L13.4963 9.36449L13.4959 9.53218ZM10.7909 9.52705L10.7906 9.69474L10.7909 9.52705ZM10.5059 9.24199L10.3382 9.24231L10.3382 9.24231L10.5059 9.24199ZM10.4999 6.14522L10.6676 6.1449L10.6673 5.97787L10.5002 5.97754L10.4999 6.14522ZM9.43219 5.97544C9.34163 5.97526 9.28565 5.87727 9.3297 5.80002L9.03835 5.63391C8.86635 5.93558 9.08517 6.31012 9.43153 6.31081L9.43219 5.97544ZM9.3297 5.80002L12.0257 1.07147L11.7343 0.90536L9.03835 5.63391L9.3297 5.80002ZM12.0257 1.07147C12.0696 0.994381 12.1828 0.992807 12.2285 1.0727L12.5196 0.906028C12.3461 0.603215 11.9081 0.600581 11.7343 0.90536L12.0257 1.07147ZM12.2285 1.0727L14.9426 5.81166L15.2336 5.64499L12.5196 0.906028L12.2285 1.0727ZM14.9426 5.81166C14.9876 5.89018 14.9311 5.98602 14.8422 5.98584L14.8416 6.32121C15.1897 6.32189 15.4062 5.94623 15.2336 5.64499L14.9426 5.81166ZM14.8422 5.98584L13.7743 5.98378L13.7736 6.31915L14.8416 6.32121L14.8422 5.98584ZM13.6063 6.15179L13.6122 9.24853L13.9476 9.24788L13.9416 6.15115L13.6063 6.15179ZM13.6122 9.24853C13.6124 9.3128 13.5605 9.36462 13.4963 9.36449L13.4956 9.69986C13.7456 9.70034 13.9481 9.49787 13.9476 9.24788L13.6122 9.24853ZM13.4963 9.36449L10.7912 9.35937L10.7906 9.69474L13.4956 9.69986L13.4963 9.36449ZM10.7912 9.35937C10.7265 9.35924 10.6737 9.30644 10.6735 9.24166L10.3382 9.24231C10.3386 9.49181 10.5411 9.69426 10.7906 9.69474L10.7912 9.35937ZM10.6735 9.24166L10.6676 6.1449L10.3322 6.14555L10.3382 9.24231L10.6735 9.24166ZM10.5002 5.97754L9.43219 5.97544L9.43153 6.31081L10.4996 6.31291L10.5002 5.97754Z" fill="white"/>
<path fill-rule="evenodd" clip-rule="evenodd" d="M14.8351 17.8423C15.0531 17.8423 15.1898 18.0779 15.0816 18.2672L12.3818 22.9918C12.2727 23.1826 11.9977 23.1826 11.8886 22.9918L9.18882 18.2671C9.08064 18.0778 9.21734 17.8423 9.43539 17.8423L10.5013 17.8423L10.5013 14.7515C10.5013 14.5947 10.6284 14.4675 10.7852 14.4675L13.4851 14.4675C13.6419 14.4675 13.7691 14.5946 13.7691 14.7514L13.7691 17.8423L14.8351 17.8423Z" fill="#FF0404"/>
<path d="M14.8351 17.8423L14.8351 18.0181L14.8351 17.8423ZM15.0816 18.2672L15.2342 18.3544L15.0816 18.2672ZM12.3818 22.9918L12.2291 22.9046L12.3818 22.9918ZM11.8886 22.9918L11.736 23.079L11.8886 22.9918ZM9.18882 18.2671L9.34143 18.1799L9.18882 18.2671ZM9.43539 17.8423L9.43539 17.6665L9.43539 17.8423ZM10.5013 17.8423L10.5013 18.018L10.6771 18.0181L10.6771 17.8423L10.5013 17.8423ZM10.5013 14.7515L10.677 14.7515L10.5013 14.7515ZM10.7852 14.4675L10.7852 14.6433L10.7852 14.4675ZM13.4851 14.4675L13.4851 14.2917L13.4851 14.4675ZM13.7691 14.7514L13.9448 14.7514L13.9448 14.7514L13.7691 14.7514ZM13.7691 17.8423L13.5933 17.8423L13.5933 18.018L13.7691 18.018L13.7691 17.8423ZM14.8351 18.0181C14.9181 18.0181 14.9702 18.1078 14.929 18.18L15.2342 18.3544C15.4093 18.0479 15.1881 17.6666 14.8351 17.6665L14.8351 18.0181ZM14.929 18.18L12.2291 22.9046L12.5344 23.079L15.2342 18.3544L14.929 18.18ZM12.2291 22.9046C12.1876 22.9773 12.0828 22.9773 12.0412 22.9046L11.736 23.079C11.9125 23.3879 12.3579 23.3879 12.5344 23.079L12.2291 22.9046ZM12.0412 22.9046L9.34143 18.1799L9.03622 18.3543L11.736 23.079L12.0412 22.9046ZM9.34143 18.1799C9.3002 18.1078 9.3523 18.018 9.43538 18.018L9.43539 17.6665C9.08239 17.6665 8.86109 18.0479 9.03622 18.3543L9.34143 18.1799ZM9.43538 18.018L10.5013 18.018L10.5013 17.6665L9.43539 17.6665L9.43538 18.018ZM10.6771 17.8423L10.677 14.7515L10.3255 14.7515L10.3255 17.8423L10.6771 17.8423ZM10.677 14.7515C10.677 14.6917 10.7255 14.6433 10.7852 14.6433L10.7852 14.2918C10.5313 14.2918 10.3255 14.4976 10.3255 14.7515L10.677 14.7515ZM10.7852 14.6433L13.4851 14.6432L13.4851 14.2917L10.7852 14.2918L10.7852 14.6433ZM13.4851 14.6432C13.5448 14.6432 13.5933 14.6917 13.5933 14.7514L13.9448 14.7514C13.9448 14.4975 13.739 14.2917 13.4851 14.2917L13.4851 14.6432ZM13.5933 14.7514L13.5933 17.8423L13.9448 17.8423L13.9448 14.7514L13.5933 14.7514ZM13.7691 18.018L14.8351 18.0181L14.8351 17.6665L13.7691 17.6665L13.7691 18.018Z" fill="white"/>
<path fill-rule="evenodd" clip-rule="evenodd" d="M17.8428 9.43391C17.8428 9.21588 18.0784 9.07919 18.2677 9.18737L22.9923 11.8872C23.1831 11.9962 23.1831 12.2713 22.9923 12.3803L18.2676 15.0802C18.0783 15.1883 17.8428 15.0516 17.8428 14.8336L17.8428 13.7677L14.752 13.7677C14.5951 13.7677 14.468 13.6406 14.468 13.4837L14.4679 10.7839C14.4679 10.6271 14.5951 10.4999 14.7519 10.4999L17.8427 10.4999L17.8428 9.43391Z" fill="#FF0404"/>
<path d="M17.8428 9.43391L18.0186 9.43392L17.8428 9.43391ZM18.2677 9.18737L18.3549 9.03477L18.2677 9.18737ZM22.9923 11.8872L22.9051 12.0398L22.9923 11.8872ZM22.9923 12.3803L23.0795 12.5329L22.9923 12.3803ZM18.2676 15.0802L18.1804 14.9276L18.2676 15.0802ZM17.8428 14.8336L17.667 14.8336L17.8428 14.8336ZM17.8428 13.7677L18.0185 13.7677L18.0185 13.5919L17.8428 13.5919L17.8428 13.7677ZM14.752 13.7677L14.752 13.5919L14.752 13.7677ZM14.468 13.4837L14.6438 13.4837L14.468 13.4837ZM14.4679 10.7839L14.2922 10.7839L14.4679 10.7839ZM14.7519 10.4999L14.7519 10.3242L14.7519 10.3242L14.7519 10.4999ZM17.8427 10.4999L17.8427 10.6757L18.0185 10.6757L18.0185 10.4999L17.8427 10.4999ZM18.0186 9.43392C18.0186 9.35084 18.1083 9.29875 18.1805 9.33997L18.3549 9.03477C18.0484 8.85963 17.6671 9.08092 17.667 9.4339L18.0186 9.43392ZM18.1805 9.33997L22.9051 12.0398L23.0795 11.7346L18.3549 9.03477L18.1805 9.33997ZM22.9051 12.0398C22.9778 12.0814 22.9778 12.1862 22.9051 12.2277L23.0795 12.5329C23.3884 12.3565 23.3884 11.9111 23.0795 11.7346L22.9051 12.0398ZM22.9051 12.2277L18.1804 14.9276L18.3548 15.2328L23.0795 12.5329L22.9051 12.2277ZM18.1804 14.9276C18.1083 14.9688 18.0185 14.9167 18.0185 14.8336L17.667 14.8336C17.667 15.1866 18.0483 15.4079 18.3548 15.2328L18.1804 14.9276ZM18.0185 14.8336L18.0185 13.7677L17.667 13.7677L17.667 14.8336L18.0185 14.8336ZM17.8428 13.5919L14.752 13.5919L14.752 13.9435L17.8428 13.9435L17.8428 13.5919ZM14.752 13.5919C14.6922 13.5919 14.6438 13.5435 14.6438 13.4837L14.2922 13.4837C14.2922 13.7376 14.4981 13.9435 14.752 13.9435L14.752 13.5919ZM14.6438 13.4837L14.6437 10.7839L14.2922 10.7839L14.2922 13.4837L14.6438 13.4837ZM14.6437 10.7839C14.6437 10.7241 14.6922 10.6757 14.7519 10.6757L14.7519 10.3242C14.498 10.3242 14.2922 10.53 14.2922 10.7839L14.6437 10.7839ZM14.7519 10.6757L17.8427 10.6757L17.8427 10.3241L14.7519 10.3242L14.7519 10.6757ZM18.0185 10.4999L18.0186 9.43392L17.667 9.4339L17.667 10.4999L18.0185 10.4999Z" fill="white"/>
<path fill-rule="evenodd" clip-rule="evenodd" d="M6.1572 14.8337C6.15719 15.0517 5.92164 15.1884 5.73233 15.0802L1.00767 12.3803C0.816897 12.2713 0.816898 11.9962 1.00768 11.8872L5.73237 9.18742C5.92169 9.07924 6.15724 9.21594 6.15724 9.43398L6.15722 10.4999L9.24802 10.4999C9.40485 10.4999 9.53199 10.627 9.532 10.7838L9.53205 13.4837C9.53206 13.6405 9.40492 13.7677 9.24808 13.7677L6.15726 13.7677L6.1572 14.8337Z" fill="#FF0404"/>
<path d="M6.1572 14.8337L5.98144 14.8337L6.1572 14.8337ZM5.73233 15.0802L5.64513 15.2328L5.73233 15.0802ZM1.00767 12.3803L1.09488 12.2277L1.00767 12.3803ZM1.00768 11.8872L0.920474 11.7346L1.00768 11.8872ZM5.73237 9.18742L5.81957 9.34002L5.73237 9.18742ZM6.15724 9.43398L6.333 9.43398L6.15724 9.43398ZM6.15722 10.4999L5.98146 10.4999L5.98146 10.6756L6.15722 10.6756L6.15722 10.4999ZM9.24802 10.4999L9.24802 10.6756L9.24802 10.4999ZM9.532 10.7838L9.35623 10.7838L9.532 10.7838ZM9.53205 13.4837L9.70781 13.4837L9.53205 13.4837ZM9.24808 13.7677L9.24808 13.9434L9.24808 13.9434L9.24808 13.7677ZM6.15726 13.7677L6.15725 13.5919L5.9815 13.5919L5.98149 13.7677L6.15726 13.7677ZM5.98144 14.8337C5.98144 14.9167 5.89168 14.9688 5.81954 14.9276L5.64513 15.2328C5.95161 15.4079 6.33294 15.1867 6.33296 14.8337L5.98144 14.8337ZM5.81954 14.9276L1.09488 12.2277L0.920469 12.533L5.64513 15.2328L5.81954 14.9276ZM1.09488 12.2277C1.02218 12.1862 1.02218 12.0814 1.09488 12.0398L0.920474 11.7346C0.611617 11.9111 0.611615 12.3565 0.920469 12.533L1.09488 12.2277ZM1.09488 12.0398L5.81957 9.34002L5.64517 9.03482L0.920474 11.7346L1.09488 12.0398ZM5.81957 9.34002C5.89171 9.2988 5.98148 9.35089 5.98147 9.43398L6.333 9.43398C6.333 9.08099 5.95166 8.85968 5.64517 9.03482L5.81957 9.34002ZM5.98147 9.43398L5.98146 10.4999L6.33299 10.4999L6.333 9.43398L5.98147 9.43398ZM6.15722 10.6756L9.24802 10.6756L9.24802 10.3241L6.15722 10.3241L6.15722 10.6756ZM9.24802 10.6756C9.30778 10.6756 9.35623 10.7241 9.35623 10.7838L9.70776 10.7838C9.70775 10.5299 9.50192 10.3241 9.24802 10.3241L9.24802 10.6756ZM9.35623 10.7838L9.35629 13.4837L9.70781 13.4837L9.70776 10.7838L9.35623 10.7838ZM9.35629 13.4837C9.35629 13.5434 9.30785 13.5919 9.24808 13.5919L9.24808 13.9434C9.50199 13.9434 9.70782 13.7376 9.70781 13.4837L9.35629 13.4837ZM9.24808 13.5919L6.15725 13.5919L6.15726 13.9434L9.24808 13.9434L9.24808 13.5919ZM5.98149 13.7677L5.98144 14.8337L6.33296 14.8337L6.33302 13.7677L5.98149 13.7677Z" fill="white"/>
</svg>
