<svg width="24" height="24" viewBox="0 0 24 24" fill="none" xmlns="http://www.w3.org/2000/svg">
<g clip-path="url(#clip0_24833_14942)">
<path d="M9.84778 21.5156C11.0855 21.5156 12.2953 21.1486 13.3244 20.461C14.3535 19.7734 15.1556 18.796 15.6292 17.6526C16.1029 16.5091 16.2268 15.2509 15.9853 14.037C15.7439 12.8231 15.1479 11.708 14.2727 10.8329C13.3975 9.9577 12.2825 9.3617 11.0686 9.12024C9.85472 8.87878 8.59648 9.00271 7.45302 9.47635C6.30955 9.94999 5.33221 10.7521 4.6446 11.7812C3.95698 12.8102 3.58997 14.0201 3.58997 15.2578" stroke="#0E416C"/>
<path d="M18.6137 21.5106C20.7469 19.3774 21.9453 16.4841 21.9453 13.4673C21.9453 10.4505 20.7469 7.55718 18.6137 5.42396C16.4804 3.29073 13.5872 2.09229 10.5703 2.09229C7.55348 2.09229 4.6602 3.29073 2.52697 5.42395" stroke="#009AD9" stroke-width="1.25"/>
<mask id="path-3-outside-1_24833_14942" maskUnits="userSpaceOnUse" x="8.60434" y="-2.12132" width="17.6777" height="17.6777" fill="black">
<rect fill="white" x="8.60434" y="-2.12132" width="17.6777" height="17.6777"/>
<path fill-rule="evenodd" clip-rule="evenodd" d="M14.9661 4.74768C14.767 4.54855 14.8679 4.20796 15.1434 4.14941L21.7315 2.74919C21.9846 2.69541 22.2083 2.92164 22.1517 3.17407L20.6891 9.69986C20.6279 9.97292 20.2896 10.0711 20.0917 9.87324L19.1081 8.88964L15.6454 12.3521C15.5068 12.4907 15.282 12.4907 15.1434 12.3521L12.5495 9.75837C12.4108 9.61974 12.4108 9.39496 12.5495 9.25632L16.0121 5.79366L14.9661 4.74768Z"/>
</mask>
<path fill-rule="evenodd" clip-rule="evenodd" d="M14.9661 4.74768C14.767 4.54855 14.8679 4.20796 15.1434 4.14941L21.7315 2.74919C21.9846 2.69541 22.2083 2.92164 22.1517 3.17407L20.6891 9.69986C20.6279 9.97292 20.2896 10.0711 20.0917 9.87324L19.1081 8.88964L15.6454 12.3521C15.5068 12.4907 15.282 12.4907 15.1434 12.3521L12.5495 9.75837C12.4108 9.61974 12.4108 9.39496 12.5495 9.25632L16.0121 5.79366L14.9661 4.74768Z" fill="#FF0404"/>
<path d="M15.1434 4.14941L14.9355 3.17126L15.1434 4.14941ZM21.7315 2.74919L21.9394 3.72734L21.7315 2.74919ZM22.1517 3.17407L21.1759 2.95537L21.1759 2.95537L22.1517 3.17407ZM20.6891 9.69986L21.6649 9.91856L20.6891 9.69986ZM20.0917 9.87324L19.3846 10.5803L20.0917 9.87324ZM19.1081 8.88964L19.8152 8.18253L19.1081 7.47545L18.401 8.18251L19.1081 8.88964ZM15.6454 12.3521L14.9383 11.645L15.6454 12.3521ZM15.1434 12.3521L14.4363 13.0593L15.1434 12.3521ZM12.5495 9.75837L13.2565 9.05124L12.5495 9.75837ZM16.0121 5.79366L16.7192 6.50077L17.4263 5.79366L16.7192 5.08655L16.0121 5.79366ZM15.6732 4.04057C16.035 4.40236 15.8517 5.02119 15.3512 5.12756L14.9355 3.17126C13.8841 3.39472 13.499 4.69474 14.259 5.45479L15.6732 4.04057ZM15.3512 5.12756L21.9394 3.72734L21.5236 1.77104L14.9355 3.17126L15.3512 5.12756ZM21.9394 3.72734C21.4797 3.82505 21.0731 3.41401 21.1759 2.95537L23.1275 3.39277C23.3435 2.42928 22.4895 1.56577 21.5236 1.77104L21.9394 3.72734ZM21.1759 2.95537L19.7133 9.48115L21.6649 9.91856L23.1275 3.39277L21.1759 2.95537ZM19.7133 9.48115C19.8245 8.98503 20.4393 8.80661 20.7988 9.16613L19.3846 10.5803C20.1399 11.3356 21.4313 10.9608 21.6649 9.91856L19.7133 9.48115ZM20.7988 9.16613L19.8152 8.18253L18.401 9.59675L19.3846 10.5803L20.7988 9.16613ZM18.401 8.18251L14.9383 11.645L16.3525 13.0592L19.8152 9.59677L18.401 8.18251ZM14.9383 11.645C15.1902 11.3931 15.5986 11.3931 15.8505 11.645L14.4363 13.0593C14.9654 13.5884 15.8233 13.5884 16.3525 13.0592L14.9383 11.645ZM15.8505 11.645L13.2565 9.05124L11.8424 10.4655L14.4363 13.0593L15.8505 11.645ZM13.2565 9.05124C13.5084 9.30313 13.5085 9.71153 13.2566 9.96343L11.8423 8.54921C11.3132 9.07839 11.3132 9.93635 11.8424 10.4655L13.2565 9.05124ZM13.2566 9.96343L16.7192 6.50077L15.305 5.08655L11.8423 8.54921L13.2566 9.96343ZM16.7192 5.08655L15.6732 4.04057L14.259 5.45479L15.305 6.50077L16.7192 5.08655Z" fill="white" mask="url(#path-3-outside-1_24833_14942)"/>
</g>
<defs>
<clipPath id="clip0_24833_14942">
<rect width="24" height="24" fill="white"/>
</clipPath>
</defs>
</svg>
