<svg width="24" height="24" viewBox="0 0 24 24" fill="none" xmlns="http://www.w3.org/2000/svg">
<path d="M3.78678 21.9565C3.52213 22.6372 2.00564 23.0057 1.28047 23.1049C0.498796 22.5326 1.49543 21.8767 2.09146 21.6202C2.12244 20.5043 2.33745 20.0234 3.19841 19.9714C5.74169 20.0405 5.65705 18.8591 5.31227 18.3249C4.41108 16.9287 4.90762 15.7704 5.44086 15.2264C2.65439 13.2437 0.966116 11.1825 1.73205 8.29142C2.97047 13.776 5.60816 15.1101 10.404 12.552C12.1875 11.6007 13.2899 10.6783 13.0247 10.084C11.5011 10.4339 9.78446 8.11253 9.88712 7.73965C10.0271 8.00371 11.7038 9.42459 12.121 8.62836C12.5382 7.83212 13.4419 8.62747 13.7172 8.83905C14.574 8.57017 16.3964 8.20798 16.8323 8.91015C17.3772 9.78786 18.2982 9.21577 19.6552 9.3432C20.1781 11.1229 17.4168 12.0388 16.9994 12.28C16.5819 12.5212 14.7504 14.5212 15.2329 15.3562C15.6189 16.0241 17.29 15.2984 18.0773 14.8521C18.9951 14.2888 19.7992 14.748 20.201 15.7341C20.1504 16.1426 19.8194 16.9536 18.9006 16.9293C18.4372 16.0799 17.7164 16.4159 17.4139 16.6901L16.2569 17.3416C16.2569 17.3416 14.5457 17.3189 13.4657 17.4759C11.5847 17.7494 8.83437 18.973 8.83437 18.973C8.20395 20.696 6.34091 20.8915 5.72148 20.9256C5.10206 20.9596 4.11759 21.1057 3.78678 21.9565Z" fill="#0E416C"/>
<circle cx="21.8112" cy="7.81179" r="1.18826" fill="#FF0404"/>
</svg>
