<svg width="24" height="24" viewBox="0 0 24 24" fill="none" xmlns="http://www.w3.org/2000/svg">
<path fill-rule="evenodd" clip-rule="evenodd" d="M16 2H2V16H8V22H22V8H16V2Z" fill="#DCEDF9"/>
<path d="M2 2V1.5H1.5V2H2ZM16 2H16.5V1.5H16V2ZM2 16H1.5V16.5H2V16ZM8 16H8.5V15.5H8V16ZM8 22H7.5V22.5H8V22ZM22 22V22.5H22.5V22H22ZM22 8H22.5V7.5H22V8ZM16 8H15.5V8.5H16V8ZM2 2.5H16V1.5H2V2.5ZM2.5 16V2H1.5V16H2.5ZM8 15.5H2V16.5H8V15.5ZM8.5 22V16H7.5V22H8.5ZM22 21.5H8V22.5H22V21.5ZM21.5 8V22H22.5V8H21.5ZM16 8.5H22V7.5H16V8.5ZM15.5 2V8H16.5V2H15.5Z" fill="#009AD9"/>
<path d="M16 8H16.5V7.5H16V8ZM8 8V7.5H7.5V8H8ZM8 16H7.5V16.5H8V16ZM16 16V16.5H16.5V16H16ZM16 7.5H15.5V8.5H16V7.5ZM14.5 7.5H13.5V8.5H14.5V7.5ZM12.5 7.5H11.5V8.5H12.5V7.5ZM10.5 7.5H9.5V8.5H10.5V7.5ZM8.5 7.5H8V8.5H8.5V7.5ZM7.5 8V8.5H8.5V8H7.5ZM7.5 9.5V10.5H8.5V9.5H7.5ZM7.5 11.5V12.5H8.5V11.5H7.5ZM7.5 13.5V14.5H8.5V13.5H7.5ZM7.5 15.5V16H8.5V15.5H7.5ZM8 16.5H8.5V15.5H8V16.5ZM9.5 16.5H10.5V15.5H9.5V16.5ZM11.5 16.5H12.5V15.5H11.5V16.5ZM13.5 16.5H14.5V15.5H13.5V16.5ZM15.5 16.5H16V15.5H15.5V16.5ZM16.5 16V15.5H15.5V16H16.5ZM16.5 14.5V13.5H15.5V14.5H16.5ZM16.5 12.5V11.5H15.5V12.5H16.5ZM16.5 10.5V9.5H15.5V10.5H16.5ZM16.5 8.5V8H15.5V8.5H16.5Z" fill="#0E416C"/>
</svg>
