<svg width="24" height="24" viewBox="0 0 24 24" fill="none" xmlns="http://www.w3.org/2000/svg">
<path d="M19.8848 12.1416L12.3848 4.4541C11.6973 5.91243 11.0223 8.02285 10.1973 8.92285C9.37227 9.82285 6.85352 12.2874 5.79102 12.8604C7.9681 15.3291 11.9779 19.6608 12.6029 19.9108C13.3842 20.2233 15.3151 19.5932 17.5964 17.4682C19.4214 15.7682 20.0827 13.3395 19.8848 12.1416Z" fill="#DCEDF9"/>
<path d="M11.3262 7.31633C9.91372 5.86172 5.25122 7.49654 3.20122 10.4058C3.20122 10.4058 0.288857 15.6964 2.40136 18.3997C3.08886 19.2621 4.43886 19.3522 4.90136 17.5501C5.54466 14.8047 6.32117 11.8576 8.22352 9.82346C8.55367 9.55698 9.04043 9.01372 9.33464 8.70581C9.94944 8.08606 10.8785 8.07288 11.3262 7.31633Z" fill="#6A6E79"/>
<path d="M9.73511 9.39495C11.9709 7.09255 12.8772 4.29278 11.7593 3.14158C10.6414 1.99038 7.92268 2.92369 5.68693 5.22608C3.45118 7.52848 2.54489 10.3283 3.66277 11.4795C4.78064 12.6307 7.49936 11.6973 9.73511 9.39495Z" fill="white"/>
<path d="M9.73511 9.39495C11.9709 7.09255 12.8772 4.29278 11.7593 3.14158C10.6414 1.99038 7.92268 2.92369 5.68693 5.22608C3.45118 7.52848 2.54489 10.3283 3.66277 11.4795C4.78064 12.6307 7.49936 11.6973 9.73511 9.39495Z" stroke="#0E416C" stroke-linecap="round" stroke-linejoin="round"/>
<path d="M11.7621 3.13281L13.6496 5.07658L14.0622 5.50138L19.8996 11.5129C21.0246 12.6714 20.112 15.4648 17.8745 17.769C15.637 20.0732 12.8746 21.0129 11.7996 19.8544L5.54962 13.418L3.66211 11.4485" stroke="#0E416C" stroke-linecap="round" stroke-linejoin="round"/>
<path d="M11.0013 7.02938C9.5888 5.57478 5.25122 7.49651 3.20122 10.4057C3.20122 10.4057 0.288857 15.6964 2.40136 18.3996C3.08886 19.2621 4.43886 19.3522 4.90136 17.55C5.54466 14.8047 6.32117 12.4164 8.22352 10.3822C8.55367 10.1157 9.04043 9.57247 9.33463 9.26456C9.94944 8.64481 9.89019 8.70585 11.0013 7.02938Z" fill="#009AD9"/>
<path d="M13.7129 5.14092C15.8004 3.28726 18.1252 2.5664 19.1377 3.66057C20.1502 4.75474 19.5128 7.09756 17.7128 9.26016C17.5212 9.47471 17.3212 9.69354 17.1129 9.91667C16.6213 10.4339 16.0811 10.8996 15.5003 11.3069C15.0314 11.6267 14.5333 11.8983 14.0129 12.1179" stroke="#0E416C" stroke-linecap="round" stroke-linejoin="round"/>
</svg>
