<svg width="24" height="24" viewBox="0 0 24 24" fill="none" xmlns="http://www.w3.org/2000/svg">
<path fill-rule="evenodd" clip-rule="evenodd" d="M14.4229 2.42665C14.4229 2.20861 14.6584 2.07193 14.8477 2.18011L19.5724 4.87997C19.7632 4.98898 19.7632 5.26407 19.5724 5.37308L14.8477 8.07289C14.6584 8.18107 14.4228 8.04438 14.4228 7.82633L14.4229 6.76043L11.3321 6.76045C11.1752 6.76045 11.0481 6.63331 11.0481 6.47648L11.048 3.77664C11.048 3.6198 11.1752 3.49266 11.332 3.49266L14.4228 3.49263L14.4229 2.42665Z" fill="#FF0404"/>
<path d="M14.4229 2.42665L14.5986 2.42666L14.4229 2.42665ZM14.8477 2.18011L14.9349 2.0275L14.8477 2.18011ZM19.5724 4.87997L19.4852 5.03257L19.5724 4.87997ZM19.5724 5.37308L19.6596 5.52569L19.5724 5.37308ZM14.8477 8.07289L14.7605 7.92029L14.8477 8.07289ZM14.4228 7.82633L14.2471 7.82633L14.4228 7.82633ZM14.4229 6.76043L14.5986 6.76043L14.5986 6.58467L14.4229 6.58467L14.4229 6.76043ZM11.3321 6.76045L11.3321 6.58469L11.3321 6.76045ZM11.0481 6.47648L11.2238 6.47648L11.0481 6.47648ZM11.048 3.77664L10.8723 3.77664L11.048 3.77664ZM11.332 3.49266L11.332 3.3169L11.332 3.3169L11.332 3.49266ZM14.4228 3.49263L14.4228 3.66839L14.5986 3.66839L14.5986 3.49264L14.4228 3.49263ZM14.5986 2.42666C14.5986 2.34357 14.6884 2.29149 14.7605 2.33271L14.9349 2.0275C14.6285 1.85237 14.2471 2.07365 14.2471 2.42664L14.5986 2.42666ZM14.7605 2.33271L19.4852 5.03257L19.6596 4.72736L14.9349 2.0275L14.7605 2.33271ZM19.4852 5.03257C19.5579 5.07411 19.5579 5.17894 19.4852 5.22048L19.6596 5.52569C19.9685 5.3492 19.9685 4.90386 19.6596 4.72736L19.4852 5.03257ZM19.4852 5.22048L14.7605 7.92029L14.9349 8.2255L19.6596 5.52569L19.4852 5.22048ZM14.7605 7.92029C14.6884 7.96151 14.5986 7.90942 14.5986 7.82634L14.2471 7.82633C14.2471 8.17933 14.6284 8.40063 14.9349 8.2255L14.7605 7.92029ZM14.5986 7.82634L14.5986 6.76043L14.2471 6.76043L14.2471 7.82633L14.5986 7.82634ZM14.4229 6.58467L11.3321 6.58469L11.3321 6.93621L14.4229 6.93619L14.4229 6.58467ZM11.3321 6.58469C11.2723 6.58469 11.2238 6.53624 11.2238 6.47648L10.8723 6.47648C10.8723 6.73039 11.0782 6.93621 11.3321 6.93621L11.3321 6.58469ZM11.2238 6.47648L11.2238 3.77664L10.8723 3.77664L10.8723 6.47648L11.2238 6.47648ZM11.2238 3.77664C11.2238 3.71687 11.2722 3.66842 11.332 3.66842L11.332 3.3169C11.0781 3.3169 10.8723 3.52274 10.8723 3.77664L11.2238 3.77664ZM11.332 3.66842L14.4228 3.66839L14.4228 3.31687L11.332 3.3169L11.332 3.66842ZM14.5986 3.49264L14.5986 2.42666L14.2471 2.42664L14.2471 3.49262L14.5986 3.49264Z" fill="white"/>
<path fill-rule="evenodd" clip-rule="evenodd" d="M7.77439 7.8264C7.77438 8.04444 7.53883 8.18112 7.34952 8.07295L2.62486 5.37309C2.43408 5.26407 2.43409 4.98898 2.62486 4.87997L7.34956 2.18016C7.53887 2.07198 7.77443 2.20868 7.77442 2.42672L7.77441 3.49262L10.8652 3.4926C11.022 3.4926 11.1492 3.61974 11.1492 3.77657L11.1492 6.47641C11.1492 6.63325 11.0221 6.76039 10.8653 6.76039L7.77444 6.76042L7.77439 7.8264Z" fill="#FF0404"/>
<path d="M7.77439 7.8264L7.59863 7.82639L7.77439 7.8264ZM7.34952 8.07295L7.26232 8.22555L7.34952 8.07295ZM2.62486 5.37309L2.71206 5.22048L2.62486 5.37309ZM2.62486 4.87997L2.53766 4.72737L2.62486 4.87997ZM7.34956 2.18016L7.43676 2.33276L7.34956 2.18016ZM7.77442 2.42672L7.95018 2.42672L7.77442 2.42672ZM7.77441 3.49262L7.59865 3.49262L7.59865 3.66839L7.77441 3.66839L7.77441 3.49262ZM10.8652 3.4926L10.8652 3.66837L10.8652 3.4926ZM11.1492 3.77657L10.9734 3.77658L11.1492 3.77657ZM11.1492 6.47641L11.325 6.47641L11.1492 6.47641ZM10.8653 6.76039L10.8653 6.93615L10.8653 6.93615L10.8653 6.76039ZM7.77444 6.76042L7.77444 6.58466L7.59869 6.58466L7.59868 6.76041L7.77444 6.76042ZM7.59863 7.82639C7.59862 7.90948 7.50886 7.96157 7.43673 7.92034L7.26232 8.22555C7.56879 8.40068 7.95013 8.1794 7.95015 7.82641L7.59863 7.82639ZM7.43673 7.92034L2.71206 5.22048L2.53766 5.52569L7.26232 8.22555L7.43673 7.92034ZM2.71206 5.22048C2.63937 5.17894 2.63937 5.07412 2.71206 5.03257L2.53766 4.72737C2.2288 4.90385 2.2288 5.3492 2.53766 5.52569L2.71206 5.22048ZM2.71206 5.03257L7.43676 2.33276L7.26236 2.02755L2.53766 4.72737L2.71206 5.03257ZM7.43676 2.33276C7.5089 2.29154 7.59866 2.34363 7.59866 2.42672L7.95018 2.42672C7.95019 2.07372 7.56885 1.85242 7.26236 2.02755L7.43676 2.33276ZM7.59866 2.42672L7.59865 3.49262L7.95017 3.49263L7.95018 2.42672L7.59866 2.42672ZM7.77441 3.66839L10.8652 3.66837L10.8652 3.31684L7.77441 3.31686L7.77441 3.66839ZM10.8652 3.66837C10.925 3.66837 10.9734 3.71681 10.9734 3.77658L11.3249 3.77657C11.3249 3.52267 11.1191 3.31684 10.8652 3.31684L10.8652 3.66837ZM10.9734 3.77658L10.9735 6.47642L11.325 6.47641L11.3249 3.77657L10.9734 3.77658ZM10.9735 6.47642C10.9735 6.53618 10.925 6.58463 10.8653 6.58463L10.8653 6.93615C11.1192 6.93615 11.325 6.73032 11.325 6.47641L10.9735 6.47642ZM10.8653 6.58463L7.77444 6.58466L7.77445 6.93618L10.8653 6.93615L10.8653 6.58463ZM7.59868 6.76041L7.59863 7.82639L7.95015 7.82641L7.95021 6.76043L7.59868 6.76041Z" fill="white"/>
<path d="M19.8321 17.3861C19.8321 18.723 17.1576 21.7501 14.9911 21.75C11.2882 21.75 11.2258 19.3555 6.46125 12.8574C6.15915 12.3368 6.1418 11.0441 7.76417 11.5821C8.24072 11.7401 9.94178 12.9528 9.94178 12.9528L10.0893 6.69761C10.0893 5.39709 12.345 5.39629 12.345 6.69761L12.3883 10.9314C12.3883 10.9314 12.9546 9.76893 13.8806 9.85562C14.7997 9.94166 14.9937 10.9237 14.9827 11.3461C14.9953 11.1328 15.384 10.5862 16.1232 10.5862C17.4287 10.5862 17.3213 11.8829 17.3335 12.7533C17.3369 12.9962 17.7445 11.8916 18.5496 11.8916C19.3547 11.8916 19.7872 12.2872 19.7872 12.8574L19.8321 17.3861Z" fill="#DCEDF9" stroke="#0E416C" stroke-width="0.75"/>
<path d="M10.0992 6.58594C10.0992 6.48387 10.1233 6.38044 10.1733 6.28079C10.2234 6.18076 10.2994 6.08481 10.4011 6.00073C10.5029 5.91657 10.6273 5.84692 10.7688 5.79849C10.9101 5.75008 11.0635 5.72461 11.2195 5.72461C11.3755 5.72461 11.5289 5.75008 11.6702 5.79849C11.8117 5.84692 11.9361 5.91657 12.0379 6.00073C12.1396 6.08481 12.2156 6.18076 12.2657 6.28079C12.3157 6.38044 12.3398 6.48387 12.3398 6.58594" stroke="white" stroke-width="0.75"/>
</svg>
