<svg width="24" height="24" viewBox="0 0 24 24" fill="none" xmlns="http://www.w3.org/2000/svg">
<path d="M20.1257 5.189C20.1257 7.1189 19.7312 9.02989 18.9648 10.8129C18.1983 12.5959 17.0749 14.2159 15.6587 15.5806C14.2425 16.9452 12.5612 18.0277 10.7108 18.7662C8.86043 19.5048 6.8772 19.8849 4.87437 19.8849L4.87437 5.189H20.1257Z" fill="#DCEDF9"/>
<path d="M20.5632 4.50153H3.82227" stroke="#009AD9" stroke-width="1.25"/>
<path d="M4.14258 20.9133L4.14258 4.32672" stroke="#0E416C" stroke-width="1.25"/>
<path d="M3.82227 20.1974L19.4155 4.4574" stroke="#0E416C" stroke-width="0.75"/>
<path d="M19.8197 4.97949C19.8197 6.90939 19.4252 8.82038 18.6587 10.6034C17.8923 12.3864 16.7689 14.0064 15.3527 15.3711C13.9365 16.7357 12.2552 17.8182 10.4048 18.5567C8.55441 19.2953 6.57119 19.6754 4.56836 19.6754" stroke="#009AD9" stroke-width="1.25"/>
<circle cx="4.125" cy="4.50153" r="2.5" fill="#0E416C" stroke="white"/>
<circle cx="4.125" cy="19.5015" r="2.5" fill="#0E416C" stroke="white"/>
<circle cx="19.5625" cy="4.97949" r="3" fill="#FF0404" stroke="white"/>
</svg>
