<svg width="24" height="24" viewBox="0 0 24 24" fill="none" xmlns="http://www.w3.org/2000/svg">
<path fill-rule="evenodd" clip-rule="evenodd" d="M15.3007 4.88312H17.3611C17.9442 4.88312 18.4205 5.35716 18.4205 5.93942V11.9436C18.4205 12.5259 17.9442 13 17.3611 13H6.63751C6.05436 13 5.57812 12.5259 5.57812 11.9436V5.93942C5.57812 5.35716 6.05436 4.88312 6.63751 4.88312H8.69793L9.62299 3.36829L9.65669 3.32134C9.89615 3.03522 10.2688 2.88171 10.6589 2.88171H13.3397C13.7297 2.88171 14.1024 3.03522 14.3419 3.32134L14.3756 3.36829L15.3007 4.88312Z" fill="#0E416C"/>
<path fill-rule="evenodd" clip-rule="evenodd" d="M9.13363 5.66144H6.63653C6.48243 5.66144 6.35547 5.78782 6.35547 5.93941V11.9436C6.35547 12.0952 6.48244 12.2216 6.63653 12.2216H17.3601C17.5142 12.2216 17.6412 12.0952 17.6412 11.9436V5.93941C17.6412 5.78783 17.5142 5.66144 17.3601 5.66144H14.863L13.7284 3.80344C13.6433 3.71517 13.4997 3.66003 13.3387 3.66003H10.6579C10.4969 3.66003 10.3533 3.71517 10.2682 3.80344L9.13363 5.66144Z" fill="#DCEDF9"/>
<path fill-rule="evenodd" clip-rule="evenodd" d="M6.63672 3.27087H8.64739V4.60514H6.63672V3.27087Z" fill="#0E416C"/>
<circle cx="12.0001" cy="8.39978" r="3" fill="#FF0404" stroke="white"/>
<line x1="8.66209" y1="12.8196" x2="5.94538" y2="22.0169" stroke="#0E416C" stroke-linecap="round"/>
<line x1="17.3876" y1="22.0013" x2="14.9055" y2="12.738" stroke="#0E416C" stroke-linecap="round"/>
<line x1="11.7304" y1="18.1024" x2="11.7098" y2="13.0157" stroke="#0E416C" stroke-linecap="round"/>
</svg>
