<svg width="24" height="24" viewBox="0 0 24 24" fill="none" xmlns="http://www.w3.org/2000/svg">
<path fill-rule="evenodd" clip-rule="evenodd" d="M21.5039 14.81L10.4778 21.2522L2.68859 14.2794L2.43995 12.5905L12.4845 9.36014L12.4913 7.79688L0.860474 11.6112L1.35858 14.9946L10.3012 23L22.8556 15.6649L23.1397 12.3608L12.4913 7.79688L12.4845 9.36014L21.6307 13.335L21.5039 14.81Z" fill="#009AD9"/>
<path d="M10.4778 21.2522L21.5039 14.81L21.6307 13.335L12.4845 9.36014L2.43995 12.5905L2.68859 14.2794L10.4778 21.2522Z" fill="#DCEDF9"/>
<path fill-rule="evenodd" clip-rule="evenodd" d="M10.5519 18.9526L10.6516 21.3059L21.8667 14.8663L22.1256 13.0927L10.5519 18.9526ZM22.8069 12.6043L22.4429 15.0985C22.4295 15.1901 22.3748 15.2705 22.2945 15.3166L10.5216 22.0765C10.3253 22.1892 10.0794 22.0538 10.0698 21.8276L9.94082 18.7839C9.93581 18.6657 10.0004 18.5554 10.106 18.5019L22.372 12.2915C22.5901 12.181 22.8422 12.3623 22.8069 12.6043Z" fill="#009AD9"/>
<path fill-rule="evenodd" clip-rule="evenodd" d="M10.6581 21.9155C10.6694 22.1826 10.3536 22.3314 10.1549 22.1527L1.7321 14.5778L1.63625 14.4032L1.23211 11.9858C1.18647 11.7128 1.50179 11.5276 1.71806 11.7003L10.4163 18.6481C10.4845 18.7026 10.5258 18.7839 10.5294 18.8711L10.6581 21.9155ZM9.93112 19.0339L1.95618 12.6638L2.21293 14.1996L10.0237 21.2241L9.93112 19.0339Z" fill="#009AD9"/>
<mask id="path-4-outside-1_25000_11323" maskUnits="userSpaceOnUse" x="6" y="0" width="11" height="14" fill="black">
<rect fill="white" x="6" width="11" height="14"/>
<path fill-rule="evenodd" clip-rule="evenodd" d="M8.35559 7.35865C8.07398 7.35865 7.90448 7.04647 8.05786 6.81029L11.7263 1.16165C11.8672 0.944694 12.1854 0.946454 12.3239 1.16495L15.9041 6.8136C16.0539 7.04996 15.8841 7.35865 15.6042 7.35865H14.2132L14.2131 12.2555C14.2131 12.4515 14.0541 12.6105 13.8581 12.6105L10.1898 12.6106C9.99377 12.6106 9.83482 12.4517 9.83482 12.2556V7.35865H8.35559Z"/>
</mask>
<path fill-rule="evenodd" clip-rule="evenodd" d="M8.35559 7.35865C8.07398 7.35865 7.90448 7.04647 8.05786 6.81029L11.7263 1.16165C11.8672 0.944694 12.1854 0.946454 12.3239 1.16495L15.9041 6.8136C16.0539 7.04996 15.8841 7.35865 15.6042 7.35865H14.2132L14.2131 12.2555C14.2131 12.4515 14.0541 12.6105 13.8581 12.6105L10.1898 12.6106C9.99377 12.6106 9.83482 12.4517 9.83482 12.2556V7.35865H8.35559Z" fill="#FF0404"/>
<path d="M8.05786 6.81029L7.2192 6.26564L8.05786 6.81029ZM11.7263 1.16165L12.565 1.7063L11.7263 1.16165ZM12.3239 1.16495L11.4792 1.7003V1.7003L12.3239 1.16495ZM15.9041 6.8136L16.7487 6.27826L15.9041 6.8136ZM15.6042 7.35865V8.35865V7.35865ZM14.2132 7.35865V6.35865H13.2132L13.2132 7.35862L14.2132 7.35865ZM14.2131 12.2555L13.2131 12.2554L14.2131 12.2555ZM13.8581 12.6105L13.8581 13.6105L13.8581 12.6105ZM10.1898 12.6106L10.1898 11.6106L10.1898 12.6106ZM9.83482 7.35865H10.8348V6.35865H9.83482V7.35865ZM8.35559 6.35865C8.86724 6.35865 9.17519 6.92585 8.89652 7.35495L7.2192 6.26564C6.63377 7.16708 7.28072 8.35865 8.35559 8.35865V6.35865ZM8.89652 7.35495L12.565 1.7063L10.8876 0.616992L7.2192 6.26564L8.89652 7.35495ZM12.565 1.7063C12.309 2.10049 11.7308 2.09729 11.4792 1.7003L13.1685 0.62961C12.6399 -0.20438 11.4254 -0.211098 10.8876 0.616992L12.565 1.7063ZM11.4792 1.7003L15.0594 7.34894L16.7487 6.27826L13.1685 0.62961L11.4792 1.7003ZM15.0594 7.34894C14.7872 6.9195 15.0958 6.35865 15.6042 6.35865V8.35865C16.6723 8.35865 17.3205 7.18042 16.7487 6.27826L15.0594 7.34894ZM15.6042 6.35865H14.2132V8.35865H15.6042V6.35865ZM13.2132 7.35862L13.2131 12.2554L15.2131 12.2555L15.2132 7.35868L13.2132 7.35862ZM13.2131 12.2554C13.2131 11.8992 13.5018 11.6105 13.858 11.6105L13.8581 13.6105C14.6064 13.6104 15.213 13.0038 15.2131 12.2555L13.2131 12.2554ZM13.858 11.6105L10.1898 11.6106L10.1899 13.6106L13.8581 13.6105L13.858 11.6105ZM10.1898 11.6106C10.546 11.6106 10.8348 11.8994 10.8348 12.2556H8.83482C8.83482 13.004 9.44151 13.6106 10.1899 13.6106L10.1898 11.6106ZM10.8348 12.2556V7.35865H8.83482V12.2556H10.8348ZM9.83482 6.35865H8.35559V8.35865H9.83482V6.35865Z" fill="white" mask="url(#path-4-outside-1_25000_11323)"/>
</svg>
