<svg width="24" height="24" viewBox="0 0 24 24" fill="none" xmlns="http://www.w3.org/2000/svg">
<path d="M19.5771 10.9008C19.8687 12.2327 19.7753 13.6201 19.3078 14.9009C18.8403 16.1818 18.018 17.3031 16.9369 18.1341C15.8559 18.965 14.5607 19.4712 13.2027 19.5935C11.8447 19.7158 10.48 19.4492 9.26787 18.8248" stroke="#FF0404" stroke-width="1.25" stroke-linecap="round"/>
<path d="M9.69935 22.2609C9.85506 22.425 10.1307 22.3511 10.1834 22.1312L10.4607 20.9758L11.2814 17.5561L11.5421 16.4696C11.5946 16.2511 11.3853 16.0606 11.1726 16.1333L6.08969 17.8708C5.89307 17.938 5.83206 18.1862 5.9751 18.3369L9.69935 22.2609Z" fill="#FF0404"/>
<path d="M5.51733 14.0294C5.22745 12.6971 5.32264 11.3098 5.79179 10.0296C6.26093 8.74934 7.08466 7.62903 8.16676 6.79948C9.24886 5.96994 10.5447 5.46541 11.9028 5.34483C13.2609 5.22425 14.6254 5.49259 15.8367 6.11852" stroke="#FF0404" stroke-width="1.25" stroke-linecap="round"/>
<path d="M15.2336 2.56739C15.0804 2.40091 14.8037 2.47046 14.7475 2.68955L14.4522 3.84042L13.5781 7.24687L13.3003 8.32911C13.2445 8.54683 13.4507 8.74058 13.6645 8.67121L18.7741 7.01348C18.9717 6.94935 19.0366 6.70215 18.8959 6.54922L15.2336 2.56739Z" fill="#FF0404"/>
</svg>
