<svg width="24" height="24" viewBox="0 0 24 24" fill="none" xmlns="http://www.w3.org/2000/svg">
<rect x="1.84375" y="2.50488" width="20.3125" height="18.9903" fill="#DCEDF9" stroke="#009AD9" stroke-width="1.25"/>
<rect x="1.84375" y="8.50488" width="13.3125" height="12.9903" stroke="#0E416C" stroke-width="1.25"/>
<path fill-rule="evenodd" clip-rule="evenodd" d="M12.4158 6.38096C12.185 6.15021 12.2897 5.75629 12.6045 5.67043L20.4616 3.52765C20.7789 3.44113 21.07 3.73224 20.9835 4.0495L18.8406 11.9066C18.7547 12.2214 18.3608 12.3261 18.13 12.0953L17.002 10.9673L13.7312 14.2382C13.5652 14.4042 13.2961 14.4042 13.1301 14.2382L10.2729 11.3811C10.1069 11.2151 10.1069 10.946 10.2729 10.7801L13.5438 7.50912L12.4158 6.38096Z" fill="#FF0404"/>
<path d="M12.4158 6.38096L12.5926 6.2042V6.20419L12.4158 6.38096ZM12.6045 5.67043L12.5387 5.42924L12.6045 5.67043ZM20.4616 3.52765L20.5274 3.76884L20.4616 3.52765ZM20.9835 4.0495L21.2247 4.11528L20.9835 4.0495ZM18.8406 11.9066L18.5994 11.8408L18.8406 11.9066ZM18.13 12.0953L17.9533 12.2721L18.13 12.0953ZM17.002 10.9673L17.1788 10.7905L17.002 10.6137L16.8253 10.7905L17.002 10.9673ZM13.7312 14.2382L13.5544 14.0614L13.7312 14.2382ZM13.1301 14.2382L13.3069 14.0614L13.1301 14.2382ZM10.2729 11.3811L10.0962 11.5579L10.2729 11.3811ZM10.2729 10.7801L10.0961 10.6033H10.0961L10.2729 10.7801ZM13.5438 7.50912L13.7206 7.68589L13.8974 7.50912L13.7206 7.33235L13.5438 7.50912ZM12.5926 6.20419C12.4976 6.10918 12.5406 5.94698 12.6703 5.91162L12.5387 5.42924C12.0387 5.5656 11.8725 6.19124 12.239 6.55773L12.5926 6.20419ZM12.6703 5.91162L20.5274 3.76884L20.3958 3.28646L12.5387 5.42924L12.6703 5.91162ZM20.5274 3.76884C20.658 3.73322 20.7779 3.85309 20.7423 3.98372L21.2247 4.11528C21.3621 3.6114 20.8997 3.14904 20.3958 3.28646L20.5274 3.76884ZM20.7423 3.98372L18.5994 11.8408L19.0818 11.9724L21.2247 4.11528L20.7423 3.98372ZM18.5994 11.8408C18.564 11.9705 18.4018 12.0136 18.3068 11.9185L17.9533 12.2721C18.3197 12.6386 18.9454 12.4724 19.0818 11.9724L18.5994 11.8408ZM18.3068 11.9185L17.1788 10.7905L16.8253 11.1441L17.9533 12.2721L18.3068 11.9185ZM16.8253 10.7905L13.5544 14.0614L13.908 14.415L17.1788 11.1441L16.8253 10.7905ZM13.5544 14.0614C13.4861 14.1298 13.3753 14.1298 13.3069 14.0614L12.9534 14.415C13.217 14.6786 13.6444 14.6786 13.908 14.415L13.5544 14.0614ZM13.3069 14.0614L10.4497 11.2043L10.0962 11.5579L12.9534 14.415L13.3069 14.0614ZM10.4497 11.2043C10.3814 11.136 10.3814 11.0252 10.4497 10.9568L10.0961 10.6033C9.83253 10.8669 9.83254 11.2943 10.0962 11.5579L10.4497 11.2043ZM10.4497 10.9568L13.7206 7.68589L13.367 7.33234L10.0961 10.6033L10.4497 10.9568ZM13.7206 7.33235L12.5926 6.2042L12.239 6.55773L13.367 7.68588L13.7206 7.33235Z" fill="white"/>
</svg>
