<svg width="24" height="24" viewBox="0 0 24 24" fill="none" xmlns="http://www.w3.org/2000/svg">
<path d="M23 11.6807L12.6807 1.36132V22L23 11.6807Z" fill="#0E416C"/>
<circle cx="11.5703" cy="11.6807" r="7.5" fill="white" stroke="#0E416C"/>
<path fill-rule="evenodd" clip-rule="evenodd" d="M12.7617 6.17516L12.7551 6.10159C12.7551 6.0793 12.7551 6.05477 12.7551 6.02802C12.7507 6.00127 12.7485 5.98567 12.7485 5.98121C12.7398 5.88312 12.7354 5.83853 12.7354 5.84745C12.7354 5.69586 12.8054 5.62007 12.9453 5.62007C13.0939 5.62007 13.1682 5.71369 13.1682 5.90095C13.1682 5.93662 13.1595 6.04363 13.142 6.22197C13.1201 6.4449 13.1092 6.59872 13.1092 6.68343C13.1092 6.80381 13.1158 6.92642 13.1289 7.05126L13.1551 7.3054V7.37228C13.1551 7.57292 13.0764 7.67323 12.919 7.67323C12.7485 7.67323 12.6655 7.57737 12.6698 7.38566L12.6764 7.14489C12.6851 6.82388 12.5868 6.56305 12.3813 6.36242C12.1758 6.16178 11.907 6.06146 11.5747 6.06146C11.1419 6.06146 10.8031 6.23089 10.5583 6.56974C10.3135 6.90859 10.1911 7.37674 10.1911 7.97419C10.1911 8.58501 10.3167 9.06096 10.5681 9.40204C10.8195 9.74312 11.1703 9.91366 11.6206 9.91366C11.8654 9.91366 12.0851 9.85347 12.2797 9.73309C12.4742 9.61271 12.6108 9.45443 12.6895 9.25825C12.742 9.12895 12.7682 8.95507 12.7682 8.7366C12.7682 8.5315 12.8513 8.42896 13.0174 8.42896C13.1966 8.42896 13.2863 8.5315 13.2863 8.7366C13.2863 9.21367 13.1245 9.60379 12.801 9.90697C12.4775 10.2102 12.06 10.3617 11.5485 10.3617C10.9583 10.3617 10.4872 10.15 10.1353 9.7264C9.78338 9.30283 9.60742 8.73883 9.60742 8.03438C9.60742 7.30763 9.78776 6.72133 10.1484 6.27547C10.5091 5.82962 10.9845 5.60669 11.5747 5.60669C12.06 5.60669 12.4556 5.79618 12.7617 6.17516Z" fill="#0E416C"/>
<path fill-rule="evenodd" clip-rule="evenodd" d="M8.57827 15.7678L9.29703 13.3185C9.33421 13.2027 9.36519 13.1293 9.38998 13.0984C9.43541 13.0328 9.50564 13 9.60065 13C9.71631 13 9.7948 13.0261 9.8361 13.0782C9.87741 13.1303 9.92905 13.2741 9.99101 13.5096L10.7036 16.1557C10.7531 16.3217 10.7945 16.4308 10.8275 16.4829C10.8605 16.535 10.906 16.5611 10.9638 16.5611C10.9803 16.5611 11.0175 16.5572 11.0753 16.5495C11.0877 16.5495 11.1022 16.5476 11.1187 16.5437C11.1352 16.5437 11.1456 16.5437 11.1497 16.5437C11.2819 16.5437 11.348 16.6093 11.348 16.7406C11.348 16.8911 11.2778 16.9664 11.1373 16.9664C11.1208 16.9664 11.0258 16.9509 10.8523 16.9201C10.7655 16.9046 10.6747 16.8969 10.5796 16.8969C10.5053 16.8969 10.4031 16.9085 10.2729 16.9316C10.1428 16.9548 10.055 16.9664 10.0096 16.9664C9.95177 16.9664 9.90013 16.9452 9.85469 16.9027C9.80925 16.8602 9.78653 16.8081 9.78653 16.7464C9.78653 16.6112 9.85469 16.5437 9.99101 16.5437C10.0158 16.5437 10.0344 16.5456 10.0468 16.5495C10.0592 16.5495 10.0736 16.5495 10.0901 16.5495C10.1067 16.5533 10.117 16.5553 10.1211 16.5553C10.2161 16.5553 10.2636 16.4935 10.2636 16.37C10.2636 16.3044 10.2512 16.2233 10.2265 16.1268L10.1149 15.6983C10.0984 15.6365 10.0819 15.5989 10.0654 15.5854C10.0488 15.5719 10.0137 15.5651 9.96003 15.5651H9.21029C9.12354 15.5651 9.06158 15.6327 9.0244 15.7678L8.91287 16.1789C8.88395 16.287 8.86949 16.3738 8.86949 16.4395C8.86949 16.5128 8.90667 16.5495 8.98103 16.5495C9.00994 16.5495 9.0306 16.5485 9.04299 16.5466C9.05538 16.5447 9.06984 16.5418 9.08636 16.5379C9.10702 16.5379 9.11941 16.5379 9.12354 16.5379C9.25573 16.5379 9.32182 16.6074 9.32182 16.7464C9.32182 16.893 9.25366 16.9664 9.11734 16.9664C9.06364 16.9664 8.97896 16.9548 8.8633 16.9316C8.74763 16.9085 8.65676 16.8969 8.59066 16.8969C8.49979 16.8969 8.39239 16.9085 8.26846 16.9316C8.14454 16.9548 8.05779 16.9664 8.00822 16.9664C7.85951 16.9664 7.78516 16.895 7.78516 16.7521C7.78516 16.6132 7.84918 16.5437 7.97724 16.5437C8.00202 16.5437 8.03507 16.5476 8.07638 16.5553C8.11769 16.563 8.14867 16.5669 8.16932 16.5669C8.23541 16.5669 8.29841 16.5089 8.35831 16.3931C8.4182 16.2773 8.49152 16.0689 8.57827 15.7678ZM9.96016 15.044L9.6196 13.6138L9.22332 15.044C9.21507 15.0749 9.21094 15.0961 9.21094 15.1077C9.21094 15.1579 9.25015 15.183 9.32858 15.183H9.86728C9.93746 15.183 9.97254 15.1598 9.97254 15.1135C9.97254 15.1019 9.96841 15.0787 9.96016 15.044ZM11.3105 15.2641C11.3105 15.1251 11.3828 15.0576 11.5273 15.0614L11.7006 15.0672C11.8162 15.0711 11.9029 15.073 11.9607 15.073C12.002 15.073 12.0639 15.0711 12.1465 15.0672C12.229 15.0634 12.2909 15.0614 12.3322 15.0614C12.4808 15.0614 12.5551 15.129 12.5551 15.2641C12.5551 15.3992 12.4808 15.4668 12.3322 15.4668C12.3198 15.4668 12.2951 15.4648 12.2579 15.461C12.2208 15.4571 12.1898 15.4552 12.165 15.4552C12.1072 15.4513 12.0309 15.4494 11.9359 15.4494C11.8369 15.4494 11.7584 15.4513 11.7006 15.4552C11.6759 15.4552 11.6449 15.4571 11.6078 15.461C11.5706 15.4648 11.5458 15.4668 11.5335 15.4668C11.3848 15.4668 11.3105 15.3992 11.3105 15.2641ZM13.5171 13.7122L13.4304 14.6213C13.6741 14.4167 13.9385 14.3144 14.2235 14.3144C14.5622 14.3144 14.8359 14.4331 15.0445 14.6705C15.2531 14.9079 15.3574 15.2158 15.3574 15.5941C15.3574 16.0071 15.2366 16.3468 14.9949 16.6132C14.7533 16.8795 14.4445 17.0127 14.0686 17.0127C13.7381 17.0127 13.4572 16.9181 13.2259 16.729C12.9946 16.5398 12.8789 16.3082 12.8789 16.0341C12.8789 15.8797 12.914 15.7533 12.9842 15.6549C13.0545 15.5564 13.1453 15.5072 13.2569 15.5072C13.3478 15.5072 13.4231 15.5381 13.483 15.5999C13.5429 15.6616 13.5729 15.7388 13.5729 15.8315C13.5729 16.009 13.4841 16.0998 13.3064 16.1036C13.418 16.4433 13.6658 16.6132 14.05 16.6132C14.302 16.6132 14.5075 16.5186 14.6665 16.3294C14.8256 16.1403 14.9051 15.8971 14.9051 15.5999C14.9051 15.3374 14.8348 15.1251 14.6944 14.9629C14.5539 14.8008 14.3681 14.7197 14.1367 14.7197C13.8558 14.7197 13.6348 14.8394 13.4737 15.0787C13.4242 15.1521 13.387 15.1965 13.3622 15.2119C13.3374 15.2273 13.292 15.2351 13.2259 15.2351C13.0813 15.2351 13.009 15.1617 13.009 15.015C13.009 14.9417 13.0173 14.8452 13.0338 14.7255C13.0503 14.5788 13.0607 14.4804 13.0648 14.4302C13.0731 14.3414 13.0834 14.2082 13.0958 14.0307C13.1164 13.7605 13.1268 13.5346 13.1268 13.3532V13.2142C13.1268 13.1486 13.133 13.1033 13.1453 13.0782C13.1577 13.0531 13.1928 13.0405 13.2507 13.0405C13.2837 13.0405 13.3085 13.0425 13.325 13.0463C13.6472 13.0695 13.8703 13.0811 13.9942 13.0811L14.0438 13.0753L14.5333 13.0695C14.5787 13.0695 14.6479 13.0656 14.7409 13.0579C14.8338 13.0502 14.9051 13.0463 14.9546 13.0463C15.0083 13.0463 15.0435 13.055 15.06 13.0724C15.0765 13.0897 15.0848 13.1274 15.0848 13.1853C15.0848 13.2355 15.0827 13.2741 15.0786 13.3011V13.4227C15.0786 13.4845 15.0889 13.5732 15.1095 13.689C15.1302 13.8049 15.1405 13.8917 15.1405 13.9496C15.1405 14.0616 15.0806 14.1175 14.9608 14.1175C14.841 14.1175 14.777 14.0577 14.7688 13.938L14.7564 13.7527C14.7481 13.6485 14.713 13.5771 14.651 13.5385C14.5891 13.4999 14.4796 13.4806 14.3226 13.4806H13.7278C13.6452 13.4806 13.5915 13.4931 13.5667 13.5182C13.5419 13.5433 13.5254 13.608 13.5171 13.7122Z" fill="#0E416C"/>
<path d="M1.02146 11.6807H19.1966" stroke="#0E416C" stroke-width="1.25"/>
</svg>
