<svg width="24" height="24" viewBox="0 0 24 24" fill="none" xmlns="http://www.w3.org/2000/svg">
<path d="M15 9V15H9V9H15Z" fill="#DCEDF9" stroke="#009AD9"/>
<path fill-rule="evenodd" clip-rule="evenodd" d="M22.5 8.5H16.5V16.5H8.5V22.5H22.5V8.5ZM17.5 17.5V9.5H21.5V21.5H9.5V17.5H17.5Z" fill="#009AD9"/>
<path fill-rule="evenodd" clip-rule="evenodd" d="M17.5 9.5H21.5V21.5H9.5V17.5H17.5V9.5Z" fill="#DCEDF9"/>
<path fill-rule="evenodd" clip-rule="evenodd" d="M1.5 15.5L7.5 15.5L7.5 7.5L15.5 7.5L15.5 1.5L1.5 1.5L1.5 15.5ZM6.5 6.5L6.5 14.5L2.5 14.5L2.5 2.5L14.5 2.5L14.5 6.5L6.5 6.5Z" fill="#009AD9"/>
<path fill-rule="evenodd" clip-rule="evenodd" d="M6.5 14.5L2.5 14.5L2.5 2.5L14.5 2.5L14.5 6.5L6.5 6.5L6.5 14.5Z" fill="#DCEDF9"/>
</svg>
