<svg width="24" height="24" viewBox="0 0 24 24" fill="none" xmlns="http://www.w3.org/2000/svg">
<path fill-rule="evenodd" clip-rule="evenodd" d="M22 8H16V16H8V22H22V8ZM17 17V9H21V21H9V17H17Z" fill="#009AD9"/>
<path fill-rule="evenodd" clip-rule="evenodd" d="M17 9H21V21H9V17H17V9Z" fill="#DCEDF9"/>
<path d="M14.5117 2.5083H15.0117V2.0083H14.5117V2.5083ZM2.51172 2.5083V2.0083H2.01172V2.5083H2.51172ZM2.51172 14.5083H2.01172V15.0083H2.51172V14.5083ZM14.5117 14.5083V15.0083H15.0117V14.5083H14.5117ZM14.5117 2.0083H14.0117V3.0083H14.5117V2.0083ZM13.0117 2.0083H12.0117V3.0083H13.0117V2.0083ZM11.0117 2.0083H10.0117V3.0083H11.0117V2.0083ZM9.01172 2.0083H8.01172V3.0083H9.01172V2.0083ZM7.01172 2.0083H6.01172V3.0083H7.01172V2.0083ZM5.01172 2.0083H4.01172V3.0083H5.01172V2.0083ZM3.01172 2.0083H2.51172V3.0083H3.01172V2.0083ZM2.01172 2.5083V3.0083H3.01172V2.5083H2.01172ZM2.01172 4.0083V5.0083H3.01172V4.0083H2.01172ZM2.01172 6.0083V7.0083H3.01172V6.0083H2.01172ZM2.01172 8.0083V9.0083H3.01172V8.0083H2.01172ZM2.01172 10.0083V11.0083H3.01172V10.0083H2.01172ZM2.01172 12.0083V13.0083H3.01172V12.0083H2.01172ZM2.01172 14.0083V14.5083H3.01172V14.0083H2.01172ZM2.51172 15.0083H3.01172V14.0083H2.51172V15.0083ZM4.01172 15.0083H5.01172V14.0083H4.01172V15.0083ZM6.01172 15.0083H7.01172V14.0083H6.01172V15.0083ZM8.01172 15.0083H9.01172V14.0083H8.01172V15.0083ZM10.0117 15.0083H11.0117V14.0083H10.0117V15.0083ZM12.0117 15.0083H13.0117V14.0083H12.0117V15.0083ZM14.0117 15.0083H14.5117V14.0083H14.0117V15.0083ZM15.0117 14.5083V14.0083H14.0117V14.5083H15.0117ZM15.0117 13.0083V12.0083H14.0117V13.0083H15.0117ZM15.0117 11.0083V10.0083H14.0117V11.0083H15.0117ZM15.0117 9.0083V8.0083H14.0117V9.0083H15.0117ZM15.0117 7.0083V6.0083H14.0117V7.0083H15.0117ZM15.0117 5.0083V4.0083H14.0117V5.0083H15.0117ZM15.0117 3.0083V2.5083H14.0117V3.0083H15.0117Z" fill="#0E416C"/>
</svg>
