<svg width="24" height="24" viewBox="0 0 24 24" fill="none" xmlns="http://www.w3.org/2000/svg">
<g clip-path="url(#clip0_24833_14732)">
<path d="M13.6551 3.88009L20.3778 10.6028C20.5361 10.7611 20.625 10.9758 20.625 11.1996C20.625 11.4244 20.5353 11.6399 20.3759 11.7983L11.4522 20.6641C11.3295 20.786 11.1773 20.8739 11.0105 20.9194L10.2942 21.1148C10.2085 21.1382 10.12 21.15 10.0311 21.15H3.99311C3.90806 21.15 3.8231 21.14 3.74274 21.1122C3.64626 21.0788 3.51762 21.0255 3.4536 20.9614C3.38959 20.8974 3.33626 20.7688 3.30284 20.6723C3.27499 20.5919 3.26501 20.507 3.26501 20.4219V13.8528C3.26501 13.6554 3.32345 13.4624 3.43296 13.2981L3.81154 12.7302C3.84711 12.6769 3.88772 12.6271 3.93282 12.5815L12.5413 3.88299C12.6889 3.73391 12.8899 3.65002 13.0996 3.65002C13.308 3.65002 13.5078 3.73278 13.6551 3.88009Z" fill="#DCEDF9" stroke="#0E416C" stroke-width="1.25" stroke-miterlimit="10"/>
</g>
<path d="M6.87728 15.8926C6.02072 15.8926 5.32635 16.5897 5.32635 17.4496C5.32635 18.3095 6.02073 19.0066 6.87728 19.0066C7.73384 19.0066 8.42822 18.3095 8.42822 17.4496C8.42822 16.5897 7.73384 15.8926 6.87728 15.8926Z" fill="#009AD9"/>
<path d="M6.87736 16.671C7.30564 16.671 7.65283 17.0196 7.65283 17.4495C7.65283 17.8795 7.30564 18.228 6.87736 18.228C6.44908 18.228 6.10189 17.8795 6.10189 17.4495C6.10189 17.0196 6.44908 16.671 6.87736 16.671Z" fill="white"/>
<defs>
<clipPath id="clip0_24833_14732">
<rect width="18.55" height="18.67" fill="white" transform="translate(2.72498 3)"/>
</clipPath>
</defs>
</svg>
