<svg width="24" height="24" viewBox="0 0 24 24" fill="none" xmlns="http://www.w3.org/2000/svg">
<path d="M10 9.5H9.5V10V22V22.5H10H22H22.5V22V10V9.5H22H10Z" fill="#DCEDF9" stroke="#009AD9"/>
<path d="M10.5 14.0034L10 14.0034L10 15.0034L10.5 15.0034L10.5 14.0034ZM14.5 14.5034L14.5 15.0034L15 15.0034L15 14.5034L14.5 14.5034ZM15 10.5034L15 10.0034L14 10.0034L14 10.5034L15 10.5034ZM14 10.5034L14 11.0034L15 11.0034L15 10.5034L14 10.5034ZM14 12.0034L14 13.0034L15 13.0034L15 12.0034L14 12.0034ZM14 14.0034L14 14.5034L15 14.5034L15 14.0034L14 14.0034ZM14.5 14.0034L14 14.0034L14 15.0034L14.5 15.0034L14.5 14.0034ZM13 14.0034L12 14.0034L12 15.0034L13 15.0034L13 14.0034ZM11 14.0034L10.5 14.0034L10.5 15.0034L11 15.0034L11 14.0034Z" fill="#0E416C"/>
<path fill-rule="evenodd" clip-rule="evenodd" d="M1 15L7 15L7 7L15 7L15 1L1 0.999999L1 15ZM6 6L6 14L2 14L2 2L14 2L14 6L6 6Z" fill="#009AD9"/>
<path fill-rule="evenodd" clip-rule="evenodd" d="M6 14L2 14L2 2L14 2L14 6L6 6L6 14Z" fill="#DCEDF9"/>
</svg>
