<svg width="45" height="45" xmlns="http://www.w3.org/2000/svg" viewBox="0 0 45 45" fill="#4A4A4A">
  <g id="wi_visible">
    <path fill="inherit" stroke="none" fill-rule="evenodd" clip-rule="evenodd" d="M9.37 23.53a21.24 21.24 0 0 0 3.24 3.87c2.38 2.23 5.86 4.38 10.37 4.38 4.52 0 8-2.16 10.4-4.38a21.38 21.38 0 0 0 3.27-3.89 19.4 19.4 0 0 0-3.07-3.9 14.74 14.74 0 0 0-10.46-4.43c-4.71 0-8.22 2.2-10.58 4.44a20.18 20.18 0 0 0-3.17 3.91zm28.6.01l1.04-.5v-.01l-.02-.03a9.53 9.53 0 0 0-.23-.43 21.7 21.7 0 0 0-3.58-4.6 17.04 17.04 0 0 0-12.06-5.1c-5.49 0-9.53 2.57-12.16 5.08a22.48 22.48 0 0 0-3.93 5.03l-.01.03-.01.01 1.02.53-1.02-.53-.28.54.3.54 1-.55-1 .55v.01l.01.03a7.97 7.97 0 0 0 .25.42c.18.27.43.66.76 1.13.67.92 1.67 2.15 3 3.39 2.63 2.46 6.63 5 11.93 5s9.32-2.54 11.97-5a23.68 23.68 0 0 0 4.01-4.94l.02-.03v-.01l-1-.56zm0 0l1.01.56.3-.52-.27-.54-1.03.5z"/>
    <path fill="inherit" stroke="none" fill-rule="evenodd" clip-rule="evenodd" d="M22.98 28.13c3.8 0 6.87-3.13 6.87-7 0-3.86-3.08-7-6.87-7a6.94 6.94 0 0 0-6.87 7c0 3.87 3.07 7 6.87 7zM21.75 20a2.31 2.31 0 0 0 2.29-2.33 2.31 2.31 0 0 0-2.3-2.34 2.31 2.31 0 0 0-2.29 2.34 2.31 2.31 0 0 0 2.3 2.33z"/>
  </g>
</svg>