<svg xmlns="http://www.w3.org/2000/svg" fill="#4A4A4A" viewBox="0 0 32 32">
  <g id="wi_warehouse" fill="inherit" stroke="none" fill-rule="evenodd" >
    <path d="M16.54 18.88l2.564-1.482v-2.911l-2.565 1.458v2.935zM13.064 14.445l-.01 2.951 2.558 1.482v-2.931l-2.548-1.502z"/>
    <path fill-rule="evenodd" d="M22.623 11.884l-.016 5.536v.02c0 .568.001 2.014-1.508 2.875l-5.03 2.901-5.287-3.062c-1.256-.87-1.255-2.023-1.254-2.685v-.047l.004-5.558 5.205-2.993c.395-.216.978-.327 1.34-.327.363 0 .922.09 1.317.306l5.23 3.034zm-6.555 8.413l4.023-2.308.023-4.657-4.026-2.325-4.034 2.32-.006 4.652 4.02 2.318z" clip-rule="evenodd"/>
    <path d="M13.618 13.582l2.47 1.55 2.495-1.506-2.507-1.465-2.458 1.42zM8.518 16.983V11.87L6 10.405l.01 7.967s-.087 1.28.702 2.645c.788 1.364 2.04 2.032 2.04 2.032l6.806 3.947v-2.915l-5.07-2.92c-2.123-1.245-1.97-3.247-1.97-4.178zM14.152 8.054c.635-.369 1.361-.502 1.968-.522.607.02 1.278.16 1.911.526l5.082 2.95 2.508-1.448-6.836-3.977S17.672 5 16.098 5h-.075c-1.576 0-2.667.605-2.667.605L6.518 9.54l2.518 1.453 5.116-2.939zM26.16 10.427L23.62 11.88v4.982c.006.23.317 2.965-1.806 4.211L16.563 24.1V27l6.827-3.931s1.272-.708 2.06-2.072c.788-1.365.701-2.625.701-2.625l.008-7.945z"/>
  </g>
</svg>