<svg width="24" height="24" viewBox="0 0 24 24" fill="none" xmlns="http://www.w3.org/2000/svg">
<g clip-path="url(#clip0_24833_14892)">
<path fill-rule="evenodd" clip-rule="evenodd" d="M3.73207 6.27418C3.65396 6.19608 3.52733 6.19608 3.44923 6.27418L2.77225 6.95115C2.66398 7.05942 2.47918 7.01085 2.43815 6.86334L0.989592 1.65637C0.9479 1.5065 1.08575 1.3685 1.23566 1.41002L6.44753 2.85368C6.59518 2.89458 6.6439 3.07951 6.53556 3.18785L5.85339 3.87002C5.77528 3.94812 5.77528 4.07475 5.85339 4.15286L7.68719 5.98666C7.7653 6.06477 7.7653 6.1914 7.68719 6.26951L5.84871 8.10798C5.77061 8.18609 5.64398 8.18609 5.56587 8.10798L3.73207 6.27418Z" fill="#FF0404"/>
<path d="M5.84871 8.10798L5.72497 7.98424L5.84871 8.10798ZM7.68719 5.98666L7.56345 6.11041L7.68719 5.98666ZM7.68719 6.26951L7.81094 6.39325L7.68719 6.26951ZM5.85339 3.87002L5.97713 3.99376L5.85339 3.87002ZM5.85339 4.15286L5.97713 4.02912L5.85339 4.15286ZM6.44753 2.85368L6.40081 3.02233L6.44753 2.85368ZM6.53556 3.18785L6.41181 3.0641L6.53556 3.18785ZM1.23566 1.41002L1.18895 1.57867L1.23566 1.41002ZM3.44923 6.27418L3.57297 6.39792L3.44923 6.27418ZM2.43815 6.86334L2.60674 6.81643L2.43815 6.86334ZM2.896 7.0749L3.57297 6.39792L3.32548 6.15044L2.64851 6.82741L2.896 7.0749ZM0.820995 1.70327L2.26955 6.91024L2.60674 6.81643L1.15819 1.60947L0.820995 1.70327ZM6.49424 2.68503L1.28238 1.24137L1.18895 1.57867L6.40081 3.02233L6.49424 2.68503ZM5.97713 3.99376L6.6593 3.31159L6.41181 3.0641L5.72964 3.74627L5.97713 3.99376ZM5.72964 4.2766L7.56345 6.11041L7.81094 5.86292L5.97713 4.02912L5.72964 4.2766ZM7.56345 6.14576L5.72497 7.98424L5.97246 8.23173L7.81094 6.39325L7.56345 6.14576ZM5.68962 7.98424L3.85581 6.15044L3.60832 6.39792L5.44213 8.23173L5.68962 7.98424ZM5.72497 7.98424C5.71521 7.994 5.69938 7.994 5.68962 7.98424L5.44213 8.23173C5.58857 8.37817 5.82601 8.37817 5.97246 8.23173L5.72497 7.98424ZM7.56345 6.11041C7.57321 6.12017 7.57321 6.136 7.56345 6.14576L7.81094 6.39325C7.95738 6.2468 7.95738 6.00937 7.81094 5.86292L7.56345 6.11041ZM5.72964 3.74627C5.5832 3.89272 5.5832 4.13016 5.72964 4.2766L5.97713 4.02912C5.96737 4.01935 5.96737 4.00352 5.97713 3.99376L5.72964 3.74627ZM6.40081 3.02233C6.41927 3.02745 6.42536 3.05056 6.41181 3.0641L6.6593 3.31159C6.86243 3.10846 6.77109 2.76172 6.49424 2.68503L6.40081 3.02233ZM1.15819 1.60947C1.15298 1.59073 1.17021 1.57348 1.18895 1.57867L1.28238 1.24137C1.00129 1.16351 0.742821 1.42227 0.820995 1.70327L1.15819 1.60947ZM3.57297 6.39792C3.58273 6.38816 3.59856 6.38816 3.60832 6.39792L3.85581 6.15044C3.70936 6.00399 3.47193 6.00399 3.32548 6.15044L3.57297 6.39792ZM2.64851 6.82741C2.63497 6.84094 2.61187 6.83487 2.60674 6.81643L2.26955 6.91024C2.34649 7.18682 2.69299 7.2779 2.896 7.0749L2.64851 6.82741Z" fill="white"/>
<path fill-rule="evenodd" clip-rule="evenodd" d="M17.1606 4.50074C17.2387 4.42264 17.2387 4.29601 17.1606 4.2179L16.4838 3.54105C16.3755 3.43278 16.4241 3.24798 16.5716 3.20695L21.7786 1.75839C21.9284 1.7167 22.0664 1.85455 22.0249 2.00446L20.5813 7.21632C20.5404 7.36398 20.3554 7.41269 20.2471 7.30436L19.5648 6.62206C19.4867 6.54396 19.3601 6.54396 19.282 6.62206L17.448 8.45599C17.3699 8.5341 17.2433 8.5341 17.1652 8.45599L15.3267 6.61751C15.2486 6.53941 15.2486 6.41278 15.3267 6.33467L17.1606 4.50074Z" fill="#FF0404"/>
<path d="M20.5813 7.21632L20.4126 7.16961L20.5813 7.21632ZM21.7786 1.75839L21.8255 1.92699L21.7786 1.75839ZM22.0249 2.00446L22.1936 2.05118L22.1936 2.05118L22.0249 2.00446ZM17.1606 4.2179L17.0369 4.34165L17.1606 4.2179ZM16.5716 3.20695L16.6185 3.37554L16.5716 3.20695ZM16.36 3.66479L17.0369 4.34165L17.2844 4.09416L16.6075 3.41731L16.36 3.66479ZM21.7317 1.58979L16.5247 3.03835L16.6185 3.37554L21.8255 1.92699L21.7317 1.58979ZM20.7499 7.26304L22.1936 2.05118L21.8563 1.95775L20.4126 7.16961L20.7499 7.26304ZM19.4411 6.74581L20.1233 7.4281L20.3708 7.18061L19.6885 6.49832L19.4411 6.74581ZM19.1582 6.49832L17.3243 8.33225L17.5718 8.57973L19.4057 6.74581L19.1582 6.49832ZM17.2889 8.33225L15.4505 6.49377L15.203 6.74126L17.0414 8.57973L17.2889 8.33225ZM15.4505 6.45841L17.2844 4.62449L17.0369 4.377L15.203 6.21093L15.4505 6.45841ZM15.4505 6.49377C15.4407 6.48401 15.4407 6.46818 15.4505 6.45841L15.203 6.21093C15.0565 6.35737 15.0565 6.59481 15.203 6.74126L15.4505 6.49377ZM17.3243 8.33225C17.3145 8.34201 17.2987 8.34201 17.2889 8.33225L17.0414 8.57973C17.1879 8.72618 17.4253 8.72618 17.5718 8.57973L17.3243 8.33225ZM19.6885 6.49832C19.5421 6.35187 19.3047 6.35187 19.1582 6.49832L19.4057 6.74581C19.4155 6.73605 19.4313 6.73605 19.4411 6.74581L19.6885 6.49832ZM20.4126 7.16961C20.4075 7.18807 20.3844 7.19416 20.3708 7.18061L20.1233 7.4281C20.3265 7.63123 20.6732 7.53989 20.7499 7.26304L20.4126 7.16961ZM21.8255 1.92699C21.8442 1.92178 21.8615 1.93901 21.8563 1.95775L22.1936 2.05118C22.2714 1.77009 22.0127 1.51162 21.7317 1.58979L21.8255 1.92699ZM17.0369 4.34165C17.0467 4.35141 17.0467 4.36724 17.0369 4.377L17.2844 4.62449C17.4308 4.47804 17.4308 4.2406 17.2844 4.09416L17.0369 4.34165ZM16.6075 3.41731C16.594 3.40377 16.6001 3.38067 16.6185 3.37554L16.5247 3.03835C16.2481 3.11529 16.157 3.46179 16.36 3.66479L16.6075 3.41731Z" fill="white"/>
<path fill-rule="evenodd" clip-rule="evenodd" d="M19.8695 17.295C19.9476 17.3731 20.0742 17.3731 20.1523 17.295L20.8293 16.6181C20.9376 16.5098 21.1224 16.5584 21.1634 16.7059L22.612 21.9128C22.6537 22.0627 22.5158 22.2007 22.3659 22.1592L17.154 20.7155C17.0064 20.6746 16.9577 20.4897 17.066 20.3814L17.7482 19.6992C17.8263 19.6211 17.8263 19.4945 17.7482 19.4164L15.9144 17.5825C15.8363 17.5044 15.8363 17.3778 15.9144 17.2997L17.7528 15.4612C17.831 15.3831 17.9576 15.3831 18.0357 15.4612L19.8695 17.295Z" fill="#FF0404"/>
<path d="M17.7482 19.6992L17.6244 19.5755L17.7482 19.6992ZM17.154 20.7155L17.2008 20.5469L17.154 20.7155ZM17.066 20.3814L17.1897 20.5051L17.066 20.3814ZM22.3659 22.1592L22.4126 21.9905L22.3659 22.1592ZM19.8695 17.295L19.9932 17.1713L19.8695 17.295ZM21.1634 16.7059L21.332 16.659L21.1634 16.7059ZM20.7056 16.4943L20.0286 17.1713L20.2761 17.4188L20.9531 16.7418L20.7056 16.4943ZM22.7806 21.8659L21.332 16.659L20.9948 16.7528L22.4434 21.9597L22.7806 21.8659ZM17.1073 20.8842L22.3192 22.3278L22.4126 21.9905L17.2008 20.5469L17.1073 20.8842ZM17.6244 19.5755L16.9423 20.2576L17.1897 20.5051L17.8719 19.8229L17.6244 19.5755ZM17.8719 19.2926L16.0381 17.4588L15.7906 17.7063L17.6244 19.5401L17.8719 19.2926ZM16.0381 17.4235L17.8766 15.585L17.6291 15.3375L15.7906 17.176L16.0381 17.4235ZM17.9119 15.585L19.7458 17.4188L19.9932 17.1713L18.1594 15.3375L17.9119 15.585ZM17.8766 15.585C17.8864 15.5752 17.9022 15.5752 17.9119 15.585L18.1594 15.3375C18.013 15.191 17.7756 15.191 17.6291 15.3375L17.8766 15.585ZM16.0381 17.4588C16.0284 17.449 16.0284 17.4332 16.0381 17.4235L15.7906 17.176C15.6442 17.3224 15.6442 17.5598 15.7906 17.7063L16.0381 17.4588ZM17.8719 19.8229C18.0184 19.6765 18.0184 19.4391 17.8719 19.2926L17.6244 19.5401C17.6342 19.5499 17.6342 19.5657 17.6244 19.5755L17.8719 19.8229ZM17.2008 20.5469C17.1823 20.5418 17.1762 20.5187 17.1897 20.5051L16.9423 20.2576C16.7391 20.4608 16.8305 20.8075 17.1073 20.8842L17.2008 20.5469ZM22.4434 21.9597C22.4486 21.9785 22.4314 21.9957 22.4126 21.9905L22.3192 22.3278C22.6003 22.4057 22.8587 22.1469 22.7806 21.8659L22.4434 21.9597ZM20.0286 17.1713C20.0188 17.1811 20.003 17.1811 19.9932 17.1713L19.7458 17.4188C19.8922 17.5652 20.1296 17.5652 20.2761 17.4188L20.0286 17.1713ZM20.9531 16.7418C20.9666 16.7283 20.9897 16.7343 20.9948 16.7528L21.332 16.659C21.2551 16.3824 20.9086 16.2913 20.7056 16.4943L20.9531 16.7418Z" fill="white"/>
<path d="M7.02148 17.0518L8.41883 15.6544" stroke="#0E416C" stroke-width="0.939394" stroke-linecap="square"/>
<path d="M2.60156 21.4733L7.02314 17.0518" stroke="#0E416C" stroke-width="1.87879" stroke-linecap="round"/>
<circle cx="11.432" cy="12.1491" r="4.43304" stroke="#0E416C" stroke-width="0.939394"/>
</g>
<defs>
<clipPath id="clip0_24833_14892">
<rect width="24" height="24" fill="white"/>
</clipPath>
</defs>
</svg>
